<svg version="1.1" id="Layer_1" xmlns="http://www.w3.org/2000/svg" xmlns:xlink="http://www.w3.org/1999/xlink" x="0px" y="0px"
	 width="100%" viewBox="0 0 1420 242" enable-background="new 0 0 1420 242" xml:space="preserve">
<path fill="#FFFFFF" opacity="1.000000" stroke="none" 
	d="
M1036.000000,243.000000 
	C690.666748,243.000000 345.833527,243.000000 1.000231,243.000000 
	C1.000154,162.333466 1.000154,81.666924 1.000077,1.000285 
	C474.333038,1.000190 947.666077,1.000190 1420.999268,1.000095 
	C1420.999512,81.666374 1420.999512,162.332748 1420.999756,242.999573 
	C1292.833374,243.000000 1164.666626,243.000000 1036.000000,243.000000 
M1185.119385,193.500137 
	C1185.410034,193.669571 1185.700562,193.839005 1186.045776,194.704681 
	C1189.144409,196.465195 1192.154053,199.525513 1195.358032,199.744553 
	C1205.308472,200.424866 1215.347412,200.371216 1225.323242,199.938477 
	C1233.443359,199.586243 1235.368652,195.976395 1232.328003,188.510590 
	C1231.830322,187.288391 1231.281494,186.069183 1230.602417,184.941238 
	C1220.997681,168.987732 1211.442017,153.003754 1201.704346,137.131546 
	C1197.755005,130.694397 1196.313354,124.210495 1200.378662,117.440048 
	C1209.709717,101.899628 1219.091553,86.387497 1228.666992,70.997192 
	C1231.561890,66.344559 1232.645386,61.638977 1231.345459,54.950798 
	C1228.972290,56.743309 1226.596069,57.718189 1225.507935,59.485874 
	C1213.654907,78.741547 1202.002930,98.120819 1190.298462,117.467842 
	C1188.254639,120.846230 1188.766846,123.981613 1190.795288,127.272758 
	C1200.392578,142.844284 1209.907959,158.466721 1219.376465,174.117004 
	C1223.014526,180.130096 1226.450317,186.265549 1230.352539,192.990387 
	C1222.867676,192.990387 1216.379028,192.862625 1209.897583,193.022964 
	C1201.931519,193.220047 1193.971436,193.657608 1185.854004,193.503479 
	C1185.565674,193.338730 1185.277222,193.173965 1184.884155,192.498947 
	C1184.608154,192.315735 1184.332275,192.132523 1183.965820,191.525421 
	C1183.753906,191.532684 1183.541992,191.539948 1183.330078,191.547226 
	C1183.539429,191.714172 1183.748657,191.881119 1184.113037,192.547409 
	C1184.412231,192.693924 1184.711548,192.840439 1185.119385,193.500137 
M1182.037964,189.509552 
	C1182.246338,189.491791 1182.454834,189.474045 1182.663208,189.456284 
	C1182.475098,189.274994 1182.287109,189.093719 1181.945923,188.502045 
	C1181.731201,188.520996 1181.516602,188.539932 1181.301880,188.558884 
	C1181.496216,188.747818 1181.690552,188.936752 1182.037964,189.509552 
M1180.037354,186.482422 
	C1180.243896,186.476395 1180.450317,186.470367 1180.656860,186.464386 
	C1180.457031,186.293060 1180.257324,186.121735 1180.037476,185.343948 
	C1179.721313,184.862823 1179.405273,184.381714 1178.886719,183.438217 
	C1178.611938,183.273178 1178.337036,183.108139 1178.115601,182.333359 
	C1177.781494,181.857925 1177.447510,181.382492 1177.094116,180.307434 
	C1176.758545,179.847916 1176.422852,179.388382 1176.035156,178.294525 
	C1175.439575,177.454620 1174.843994,176.614716 1174.148560,175.049423 
	C1171.598511,169.969604 1169.048340,164.889786 1165.958130,158.734085 
	C1159.736816,168.819855 1154.016113,177.553223 1148.892090,186.623611 
	C1146.243286,191.312378 1143.327759,193.409500 1137.614624,193.170517 
	C1126.655151,192.712097 1115.652100,193.292892 1104.666992,193.442535 
	C1107.496094,198.231445 1110.975342,200.222260 1115.674805,200.131729 
	C1123.156250,199.987564 1130.724976,199.399963 1138.106567,200.271164 
	C1147.809814,201.416336 1153.417358,196.637466 1157.901367,189.181992 
	C1158.928345,187.474335 1159.873169,185.711578 1160.987305,184.063065 
	C1163.729248,180.006287 1166.547485,176.001236 1169.212524,172.152176 
	C1171.124878,173.806427 1172.480835,174.979446 1173.958496,176.761627 
	C1174.598145,177.544403 1175.237671,178.327164 1175.915527,179.699310 
	C1176.244385,180.163239 1176.573242,180.627167 1176.953247,181.682404 
	C1177.293579,182.131912 1177.633789,182.581421 1178.116699,183.506134 
	C1178.237915,183.839905 1178.465332,184.067719 1178.847168,184.780640 
	C1179.208008,185.212997 1179.568970,185.645355 1180.037354,186.482422 
M1064.938843,97.074745 
	C1064.938843,97.074745 1064.914429,97.177162 1064.621826,96.586037 
	C1064.000732,96.461861 1063.379517,96.337685 1062.035522,96.011536 
	C1030.711060,83.867882 995.885010,99.116608 987.178162,132.546982 
	C986.290833,126.981148 985.335205,121.425095 984.536194,115.846611 
	C983.799194,110.700806 985.134583,103.437088 982.214661,100.781586 
	C974.772461,94.013420 976.455872,88.780350 981.700317,82.538055 
	C982.326050,81.793312 982.547546,80.722656 983.108521,79.907799 
	C992.242249,66.641022 976.773865,47.117344 964.008484,46.996273 
	C964.008484,46.996273 964.014771,47.022999 963.593262,46.402557 
	C962.353394,46.297295 961.113464,46.192032 959.008789,46.025265 
	C956.240784,46.332211 953.272827,46.099148 950.738464,47.037315 
	C938.119507,51.708485 928.764954,67.941078 944.068054,83.595070 
	C944.387207,83.729378 944.706299,83.863686 944.997009,84.002785 
	C944.997009,84.002785 945.004272,83.974678 944.970886,84.683716 
	C947.641479,87.967682 950.312012,91.251656 952.184326,94.628914 
	C947.588440,94.628914 942.992554,94.628914 938.091919,94.628914 
	C938.091919,128.478561 938.091919,161.723495 938.265076,195.609421 
	C941.665161,198.047729 944.853149,202.116898 948.508484,202.592300 
	C956.671875,203.653976 965.073853,203.109268 973.367981,202.861298 
	C979.568848,202.675919 982.945251,198.811203 982.988281,192.538239 
	C983.030396,186.395294 982.779114,180.241028 983.080139,174.112549 
	C983.271606,170.214569 984.235474,166.354523 984.920654,162.052643 
	C987.333130,163.814026 988.786194,164.874908 990.608032,166.500320 
	C992.074768,169.309784 993.541443,172.119263 995.039856,175.570526 
	C995.435547,175.993530 995.831177,176.416534 996.032715,176.834244 
	C996.032715,176.834244 996.223755,176.799088 996.125610,177.531067 
	C996.587097,178.586044 996.925293,179.717896 997.528076,180.684799 
	C1016.741089,211.506561 1066.693604,213.715561 1088.146606,184.383224 
	C1094.888916,175.164490 1092.150635,171.955460 1083.848389,169.040695 
	C1083.848389,169.040695 1083.839966,169.210297 1083.764160,168.509171 
	C1077.751953,165.337112 1071.739746,162.165054 1065.121948,158.709412 
	C1063.808594,157.999771 1062.372070,157.450089 1061.204590,156.550949 
	C1057.474487,153.677994 1054.401611,153.369705 1051.391724,157.773727 
	C1050.305786,159.362579 1047.867798,160.027496 1045.160156,160.998886 
	C1034.881958,162.243912 1032.227661,156.970123 1032.982544,148.493378 
	C1033.070679,147.502884 1032.968140,146.496948 1033.000366,145.499649 
	C1033.150024,140.857498 1036.889160,136.684616 1041.522339,137.194702 
	C1046.870972,137.783524 1052.186646,139.170181 1057.352295,140.748291 
	C1060.750488,141.786484 1063.642822,142.026260 1066.789062,140.099915 
	C1074.147095,135.594849 1081.739990,131.462814 1088.969116,126.766273 
	C1090.423218,125.821587 1091.726318,122.758926 1091.288452,121.172470 
	C1090.318604,117.657791 1088.853882,113.842964 1086.416504,111.257927 
	C1080.764160,105.263145 1074.599976,99.637543 1066.011230,97.988068 
	C1066.011230,97.988068 1066.048950,97.960022 1065.851929,97.455925 
	C1065.517578,97.347069 1065.183228,97.238213 1064.938843,97.074745 
M1149.926880,55.671467 
	C1149.828003,55.621506 1149.729004,55.571541 1149.630127,55.521610 
	C1149.746948,55.685871 1149.863647,55.850132 1150.034790,56.755993 
	C1153.381836,66.934303 1159.929321,75.175125 1166.479492,83.726357 
	C1167.240356,81.476830 1167.995361,78.968430 1167.106812,77.378853 
	C1163.655762,71.205650 1159.873291,65.189240 1155.784180,59.419086 
	C1154.600464,57.748695 1151.979736,57.096611 1149.926880,55.671467 
M141.213318,163.909027 
	C140.412460,163.166260 139.504913,162.509109 138.828537,161.666428 
	C135.190231,157.133530 131.609375,152.554535 128.010284,147.498688 
	C127.879585,147.218872 127.748878,146.939056 127.618179,146.659241 
	C127.492302,146.752548 127.250793,146.918365 127.257271,146.928680 
	C127.487976,147.296616 127.741875,147.650009 127.993614,148.761124 
	C128.636154,150.451309 129.035751,152.290253 129.963562,153.805786 
	C133.852341,160.157883 137.899353,166.413101 141.198975,172.951736 
	C130.188583,177.349136 119.178192,181.746536 107.360146,185.915497 
	C106.907379,184.785477 106.010841,183.627655 106.079636,182.530334 
	C106.358696,178.079269 106.628952,173.589157 107.454491,169.217697 
	C110.694191,152.062698 117.720337,136.340759 125.939339,121.063652 
	C129.070480,115.243614 132.687653,110.376617 140.469910,110.476936 
	C142.951859,114.448105 145.433792,118.419281 147.953644,123.076180 
	C148.498444,124.347420 149.043243,125.618652 149.948090,127.730003 
	C157.447617,123.042656 164.235321,118.621124 171.212509,114.522141 
	C174.263168,112.729935 174.311066,110.827232 173.012817,107.940041 
	C164.987167,90.091484 157.195618,72.136673 149.051361,54.342995 
	C146.467117,48.696869 143.042099,43.435574 139.981339,37.513477 
	C139.861862,37.235500 139.742386,36.957523 139.622925,36.679539 
	C139.498672,36.768833 139.261719,36.929825 139.266373,36.937141 
	C139.497253,37.300137 139.748840,37.649956 139.991959,38.841320 
	C142.268936,45.648876 144.411606,52.505375 146.868317,59.247440 
	C148.618332,64.050148 150.790939,68.698875 153.090836,74.167404 
	C147.116394,73.785103 142.391846,73.482788 136.783661,73.117706 
	C124.603241,71.509087 114.948830,76.216713 107.335800,85.361511 
	C103.838737,89.562187 100.628265,94.083191 97.860138,98.795143 
	C84.134445,122.159203 74.367966,146.933350 70.676697,174.006836 
	C68.639931,188.945435 71.505821,201.677597 84.046669,211.932236 
	C87.336182,214.281662 90.337662,217.942688 93.968033,218.739914 
	C105.885895,221.357101 117.881813,219.990509 128.892242,214.838577 
	C152.302460,203.884613 175.458145,192.382324 198.584961,180.837967 
	C199.950699,180.156219 201.234268,176.701019 200.684967,175.239838 
	C198.203217,168.638260 195.047760,162.289932 192.080780,155.090897 
	C190.372696,151.060852 188.664612,147.030792 186.941803,142.261124 
	C186.073135,140.403961 185.204453,138.546783 184.163208,136.320663 
	C181.354721,137.982681 179.041901,139.217850 176.866913,140.660782 
	C165.191162,148.406708 153.549698,156.204361 141.213318,163.909027 
M921.827881,108.541481 
	C921.524414,108.354507 921.220886,108.167542 920.502136,107.471794 
	C908.123169,93.827377 892.299622,90.196861 874.842896,92.491638 
	C859.708374,94.481163 847.513367,101.243111 840.727905,115.906387 
	C839.217529,114.585876 837.707092,113.265358 835.813049,111.319527 
	C834.212952,110.854591 832.612854,110.389664 830.602722,109.408524 
	C817.217957,90.285187 786.644531,87.835777 768.271667,97.004860 
	C748.455261,106.894402 742.974487,128.896317 756.056396,147.666245 
	C757.303101,149.555511 758.223633,151.815826 759.863831,153.257477 
	C763.386292,156.353668 767.279724,159.027863 770.357727,162.171066 
	C761.786316,166.060654 753.214966,169.950241 744.205322,173.175232 
	C744.136902,171.520447 744.010193,169.865692 744.008972,168.210861 
	C743.994507,148.932465 744.045166,129.653915 743.972717,110.375793 
	C743.947754,103.726028 741.300964,98.545181 734.096741,95.309700 
	C721.734497,95.309700 709.372314,95.309700 697.030518,95.309700 
	C696.793884,97.633080 696.588745,99.647064 696.350159,101.989555 
	C678.024109,86.005699 653.660095,90.723358 641.488220,102.595390 
	C635.611023,108.327858 631.794861,116.173470 626.404724,122.730690 
	C625.269043,119.394142 623.212463,116.074371 623.151306,112.718254 
	C622.824646,94.787415 623.038940,76.847336 622.974304,58.910786 
	C622.949158,51.939522 618.277405,46.949505 612.086121,47.985668 
	C599.929688,47.985668 587.773254,47.985668 575.383545,47.985668 
	C575.126709,52.532600 574.915039,56.279167 574.227783,60.688396 
	C573.918213,67.867538 573.608643,75.046677 573.299072,82.225815 
	C572.752502,82.474586 572.205872,82.723366 571.659241,82.972145 
	C566.898499,77.942322 562.394531,72.633797 557.312866,67.952339 
	C550.784485,61.938168 543.514343,57.021442 533.315186,56.840897 
	C520.303223,52.315434 507.131409,50.438862 493.210052,51.858109 
	C462.176025,55.021946 434.539642,82.120209 430.889221,113.278328 
	C429.470032,125.391556 430.880737,137.130325 433.005432,149.504456 
	C433.251984,150.008682 433.498535,150.512909 433.984589,151.382935 
	C433.984589,151.382935 434.071259,151.811478 433.998138,152.692154 
	C434.334534,154.973312 434.326233,157.372940 435.062927,159.516510 
	C440.054352,174.039871 449.615997,185.310287 461.986664,193.799576 
	C478.987640,205.466339 497.899780,210.240692 518.684937,207.132156 
	C538.827393,204.119766 555.268555,194.960785 568.236633,179.350510 
	C569.432068,177.911484 570.928589,176.722580 572.819885,174.903320 
	C573.573792,181.929443 574.220398,187.954926 575.056458,194.357895 
	C575.056458,194.357895 575.123352,194.774963 575.053040,195.569885 
	C575.748657,200.783752 579.811707,204.587402 586.132690,204.870667 
	C594.103516,205.227829 602.122498,205.291718 610.083984,204.838318 
	C616.919250,204.449051 619.859314,201.370850 621.232239,194.591934 
	C621.688110,192.340729 621.794128,190.015533 622.009827,187.719437 
	C622.523376,182.254532 623.006775,176.786789 623.502319,171.320190 
	C623.927246,171.220581 624.352112,171.120972 624.777039,171.021378 
	C627.450317,175.524963 629.969788,180.128693 632.825378,184.513565 
	C641.914062,198.470032 654.451477,206.877106 671.476257,206.885223 
	C679.377563,206.888977 687.279419,205.683029 694.939758,205.686951 
	C688.276184,214.255371 688.245361,221.415741 694.883667,229.831223 
	C698.142578,238.702271 703.403748,238.748993 713.802307,237.574478 
	C718.169250,237.081238 722.593567,237.075989 726.994019,236.904755 
	C732.886414,236.675491 738.780090,236.462738 744.674988,236.318008 
	C747.654724,236.244843 750.639587,236.290665 753.620117,236.363617 
	C760.682861,236.536499 767.745728,236.721603 774.805908,236.974564 
	C778.379150,237.102600 781.954224,237.305084 785.515259,237.621765 
	C791.638733,238.166351 797.848877,239.397598 802.795532,234.106430 
	C804.804932,231.957199 806.985291,231.954498 809.395142,233.668213 
	C815.438293,237.965729 822.273743,238.563736 829.420349,237.881500 
	C834.200256,237.425186 839.013733,236.991562 843.805359,237.056122 
	C853.601074,237.188095 863.392578,237.937912 873.185059,237.922958 
	C884.139160,237.906235 895.151611,237.623871 905.546753,232.178818 
	C909.449707,236.629410 914.396729,238.328766 920.240356,238.023392 
	C928.177795,237.608597 936.122437,237.306046 944.067444,237.073166 
	C950.801636,236.875793 957.542175,236.896393 964.277100,236.717300 
	C967.076843,236.642838 969.896484,235.941772 972.660034,236.149933 
	C979.582336,236.671326 986.483032,237.502838 993.382507,238.295761 
	C1002.538208,239.347977 1007.493286,237.405151 1009.326599,231.028076 
	C1011.295776,224.178436 1010.615112,216.202530 1001.639771,211.287186 
	C999.202209,211.171112 996.764587,211.055038 994.412354,210.943024 
	C994.033081,212.497421 993.754822,213.637955 993.436890,214.940842 
	C986.917053,209.854614 983.673157,209.760025 980.493530,214.193375 
	C980.017883,214.121155 979.542297,214.048920 978.611389,213.455154 
	C974.008972,209.117264 968.257629,211.550232 962.521667,210.352829 
	C958.181885,209.042786 958.422241,213.102570 956.283508,214.845108 
	C951.093994,208.972885 945.167908,210.647873 938.322754,213.064087 
	C936.918335,213.028656 935.513916,212.993210 933.509766,212.460266 
	C924.064026,211.760574 914.618286,211.060898 905.023193,210.350159 
	C904.808960,214.403595 904.661011,217.203506 903.890137,219.845276 
	C900.239990,217.243774 896.589844,214.642273 892.274963,211.548019 
	C886.270447,211.364853 880.265991,211.181686 874.206909,210.118011 
	C874.206909,208.523102 874.206909,206.928192 874.206909,204.908539 
	C877.220947,204.908539 879.742126,205.237381 882.148071,204.850113 
	C891.265991,203.382523 900.794434,202.920563 909.351807,199.823486 
	C929.868164,192.398148 936.557922,176.327347 931.625793,156.464066 
	C930.666443,152.600327 926.520081,149.527969 923.920654,146.029770 
	C923.920654,146.029770 923.909424,146.127151 923.802002,145.653946 
	C923.641113,145.344849 923.389160,145.159912 922.652344,144.545700 
	C917.680359,141.300964 912.708313,138.056213 907.971863,134.162735 
	C914.019226,130.783386 920.087830,127.440910 926.094177,123.990150 
	C927.153992,123.381233 928.500061,122.468620 928.779480,121.441956 
	C929.985168,117.011497 926.619934,111.214638 921.938904,108.998489 
	C921.938904,108.998489 921.948059,109.074539 921.827881,108.541481 
M218.775543,139.715866 
	C213.052826,128.123001 213.273026,127.312881 224.088669,120.187988 
	C224.782852,119.730690 225.476166,119.271713 226.179062,118.828041 
	C241.357895,109.246918 256.618988,99.792351 271.665100,90.007225 
	C275.800568,87.317734 279.364532,83.717857 283.026276,80.356583 
	C283.810181,79.636993 284.560181,77.770775 284.173340,77.060684 
	C281.034149,71.298683 277.620361,65.686310 274.290253,60.028332 
	C273.649231,60.385181 273.008179,60.742027 272.367157,61.098877 
	C274.746429,65.741554 277.125702,70.384239 279.639130,75.288712 
	C257.416168,89.369423 235.273224,103.493904 213.017471,117.438393 
	C207.022308,121.194710 206.589615,121.643791 209.011490,128.436935 
	C209.510880,129.837646 210.221512,131.162445 210.822113,132.527802 
	C215.303894,142.716568 219.703491,152.942642 224.308868,163.075195 
	C225.740860,166.225754 225.247650,167.813873 221.836838,168.991394 
	C216.979813,170.668167 212.356506,173.013138 207.524902,174.775269 
	C203.850967,176.115204 203.104172,178.229538 204.745514,181.672989 
	C212.316772,182.649719 218.357895,178.981476 224.485870,175.696136 
	C230.807114,172.307175 231.525848,171.498260 229.169281,164.742737 
	C226.282776,156.468155 222.478943,148.513565 218.775543,139.715866 
M190.447784,72.016685 
	C184.378738,58.192287 178.394714,44.329231 172.145630,30.586700 
	C171.245972,28.608246 169.070145,27.210098 167.484894,25.543396 
	C166.797226,26.030499 166.109543,26.517601 165.421875,27.004704 
	C174.360168,51.235859 185.659866,74.461411 195.854568,98.157532 
	C196.669846,98.048439 197.485123,97.939354 198.300400,97.830261 
	C198.345322,95.571533 199.026093,93.086327 198.317200,91.096092 
	C196.095078,84.857483 193.349319,78.805389 190.447784,72.016685 
M1104.011963,62.535530 
	C1105.369019,65.736031 1106.395020,69.131126 1108.141846,72.102501 
	C1114.771240,83.379700 1121.667114,94.499962 1128.397339,105.718529 
	C1132.370483,112.341347 1136.219360,119.038712 1140.225952,125.876358 
	C1144.141724,122.490700 1142.679810,119.387550 1140.823120,116.295357 
	C1132.382812,102.239456 1124.022339,88.134331 1115.442261,74.164146 
	C1111.916992,68.424156 1107.910400,62.979649 1104.122803,57.400738 
	C1103.717896,57.627663 1103.312988,57.854591 1102.908081,58.081516 
	C1103.218262,59.322132 1103.528564,60.562752 1104.011963,62.535530 
z"/>
<path fill="#3967FF" opacity="1.000000" stroke="none" 
	d="
M433.061279,148.920334 
	C430.880737,137.130325 429.470032,125.391556 430.889221,113.278328 
	C434.539642,82.120209 462.176025,55.021946 493.210052,51.858109 
	C507.131409,50.438862 520.303223,52.315434 533.869812,57.196060 
	C545.994934,63.570461 556.234497,71.196938 563.973511,82.220131 
	C564.349243,82.691719 564.637390,82.891975 564.949951,83.052200 
	C564.974304,83.012184 564.888550,83.050026 564.853394,83.425743 
	C563.852478,85.097160 563.159546,86.847565 561.877869,87.616661 
	C551.595886,93.786507 541.202759,99.771095 530.561523,105.679199 
	C529.098938,104.043190 527.918396,102.540337 526.651978,100.775131 
	C526.090759,100.269623 525.615356,100.026459 525.146179,99.853905 
	C525.152466,99.924507 525.205688,99.793098 525.117737,99.470947 
	C522.370300,97.398300 519.710876,95.647812 516.802124,93.623474 
	C511.192383,92.552605 505.767456,90.776291 500.482483,91.124382 
	C474.566620,92.831253 463.921600,121.073639 474.015869,140.421036 
	C476.700592,144.205093 479.332428,147.642075 482.149048,151.364838 
	C487.230042,153.736465 492.126221,155.822296 497.382385,158.105469 
	C510.144897,160.037750 520.863159,157.064377 528.664429,146.731873 
	C530.238831,144.646637 531.561096,144.014526 533.926392,145.352814 
	C534.375183,145.660568 534.689758,145.752014 535.171631,145.955872 
	C535.338928,146.068283 535.736694,146.134048 535.943359,146.412354 
	C545.888123,152.477539 555.626221,158.264404 565.243042,164.385712 
	C544.679749,198.600403 500.716736,206.263718 469.481812,190.405533 
	C467.442352,189.370102 465.222504,188.689957 463.053284,187.885590 
	C463.020020,187.926636 463.122528,187.900864 463.029236,187.647614 
	C462.603302,187.272018 462.270630,187.149673 461.681274,186.816040 
	C459.248871,184.811310 457.027008,183.070663 454.905518,181.215302 
	C445.609741,173.085602 439.530396,162.665802 434.071259,151.811478 
	C434.071259,151.811478 433.984589,151.382935 433.913666,150.906677 
	C433.582245,149.927063 433.321747,149.423706 433.061279,148.920334 
z"/>
<path fill="#3966FF" opacity="1.000000" stroke="none" 
	d="
M627.045471,123.062271 
	C631.794861,116.173470 635.611023,108.327858 641.488220,102.595390 
	C653.660095,90.723358 678.024109,86.005699 696.350159,101.989555 
	C696.588745,99.647064 696.793884,97.633080 697.030518,95.309700 
	C709.372314,95.309700 721.734497,95.309700 734.279175,95.934677 
	C734.462891,97.352768 734.464233,98.145874 734.323730,99.394424 
	C734.181885,131.393921 734.181885,162.937973 734.181885,194.687714 
	C721.388306,194.687714 709.347656,194.687714 697.214600,194.687714 
	C696.987427,192.113678 696.795532,189.938950 696.578125,187.475266 
	C695.404907,188.209610 694.662476,188.585800 694.020081,189.089539 
	C681.898071,198.594940 668.638611,200.314346 654.304871,194.992493 
	C652.933228,194.483215 651.436584,194.310349 649.997925,193.992920 
	C649.997864,194.004532 650.020569,193.999619 649.880127,193.708282 
	C649.121460,193.281509 648.503235,193.146088 647.616455,192.820190 
	C636.115906,184.603104 628.851196,174.051651 625.710022,160.443115 
	C622.784912,147.770844 624.221130,135.435410 627.045471,123.062271 
M696.079346,142.013748 
	C696.079346,142.013748 696.115845,141.952423 696.267273,141.155685 
	C695.110168,133.931549 690.631409,128.073013 684.575867,127.204430 
	C677.965393,126.256248 671.072937,125.854156 666.169006,131.855377 
	C661.099243,138.059601 660.615112,145.276001 662.932251,152.577972 
	C664.731506,158.248184 668.368347,162.459869 674.995605,163.188629 
	C674.995605,163.188629 674.804565,163.207199 675.000061,163.673309 
	C675.318665,163.734772 675.637207,163.796234 676.806763,163.976669 
	C687.269897,163.827881 694.079346,158.839691 696.568726,149.280075 
	C696.404480,146.834213 696.240295,144.388367 696.079346,142.013748 
z"/>
<path fill="#3967FF" opacity="1.000000" stroke="none" 
	d="
M147.915741,122.390450 
	C145.433792,118.419281 142.951859,114.448105 140.154541,109.906174 
	C138.567825,107.544754 137.296478,105.754082 135.888580,103.658188 
	C134.542252,101.617661 133.332474,99.882355 132.122696,98.147049 
	C131.379532,98.395363 130.636368,98.643677 129.893219,98.891983 
	C109.775131,125.271385 97.036499,154.424210 96.538536,189.276352 
	C98.786842,188.599167 99.988945,188.237091 101.561722,187.913055 
	C104.010864,187.348709 106.089325,186.746323 108.167801,186.143951 
	C119.178192,181.746536 130.188583,177.349136 141.877075,172.763885 
	C156.412567,165.137253 170.269974,157.698486 184.240707,150.198883 
	C185.566650,152.186813 186.837799,154.092621 188.191193,156.334045 
	C191.119247,161.852402 193.965057,167.035110 197.291138,173.092484 
	C177.109543,183.406815 157.590515,194.078262 137.467178,203.452545 
	C120.598129,211.310867 103.091545,218.128845 83.850441,211.305313 
	C71.505821,201.677597 68.639931,188.945435 70.676697,174.006836 
	C74.367966,146.933350 84.134445,122.159203 97.860138,98.795143 
	C100.628265,94.083191 103.838737,89.562187 107.335800,85.361511 
	C114.948830,76.216713 124.603241,71.509087 137.468781,73.419250 
	C155.671310,79.598518 162.321350,95.419006 171.666763,109.772163 
	C163.421799,114.152496 155.668762,118.271477 147.915741,122.390450 
z"/>
<path fill="#3967FF" opacity="1.000000" stroke="none" 
	d="
M755.979858,146.952866 
	C742.974487,128.896317 748.455261,106.894402 768.271667,97.004860 
	C786.644531,87.835777 817.217957,90.285187 830.827332,110.035873 
	C831.966919,112.909752 832.881958,115.156273 833.852417,117.539017 
	C827.024414,120.063446 820.409119,122.246254 814.013123,124.948074 
	C807.648132,127.636780 801.865295,129.152161 797.850037,121.490112 
	C797.725647,121.252846 797.288391,121.179588 796.717285,120.751884 
	C794.800049,120.326393 792.971985,119.651825 791.570801,120.158180 
	C789.598938,120.870743 787.943542,122.459183 786.152832,123.673080 
	C787.413452,125.141197 788.674133,126.609314 790.206177,128.346649 
	C798.575378,130.446182 806.673218,132.276489 815.034363,134.343002 
	C820.244446,137.732376 826.066223,140.064911 829.954651,144.210693 
	C837.872742,152.652832 837.620422,163.251984 835.064270,173.914734 
	C835.051453,173.931305 835.014954,173.951843 834.762329,174.189453 
	C831.396545,178.848679 829.132812,184.402832 825.018005,187.489044 
	C809.986755,198.762802 792.675537,200.006439 774.849670,196.353027 
	C769.085938,195.171768 763.547058,192.893295 757.605713,190.966095 
	C752.273682,185.762238 746.347717,181.375626 744.643555,173.839828 
	C753.214966,169.950241 761.786316,166.060654 771.067322,162.032166 
	C774.737305,160.202759 776.639648,160.839600 778.741150,163.789307 
	C783.729431,170.790756 790.974365,171.947250 797.725037,167.382690 
	C796.904968,162.998444 793.384338,161.995148 789.808167,160.918304 
	C778.073303,157.384750 766.064697,154.490982 755.979858,146.952866 
z"/>
<path fill="#3967FF" opacity="1.000000" stroke="none" 
	d="
M907.736328,134.811462 
	C912.708313,138.056213 917.680359,141.300964 922.885620,145.071991 
	C923.382446,145.774567 923.645935,145.950851 923.909424,146.127136 
	C923.909424,146.127151 923.920654,146.029770 923.877563,146.458923 
	C924.378662,148.796448 924.922119,150.705017 925.467224,152.613113 
	C931.033264,172.095993 923.058777,188.107330 903.689575,194.041412 
	C895.451477,196.565308 886.481445,197.885422 877.871765,197.765518 
	C859.652832,197.511841 844.061829,191.301254 835.014954,173.951843 
	C835.014954,173.951843 835.051453,173.931305 835.376526,173.761261 
	C846.096436,168.758804 856.491272,163.926422 867.048767,159.394287 
	C868.386414,161.493713 869.406128,163.420898 870.764160,165.069336 
	C875.909180,171.314667 884.404724,171.662750 889.208679,165.573196 
	C883.279541,160.104935 875.685913,159.155869 868.006348,157.474426 
	C866.127991,156.792496 864.523315,156.379379 862.948059,155.874512 
	C851.763977,152.290070 843.531982,145.509506 841.437500,133.537170 
	C840.457458,127.934868 841.339111,122.006866 841.377014,116.226479 
	C847.513367,101.243111 859.708374,94.481163 874.842896,92.491638 
	C892.299622,90.196861 908.123169,93.827377 920.772949,108.005463 
	C921.345215,108.717598 921.646606,108.896080 921.948059,109.074547 
	C921.948059,109.074539 921.938904,108.998489 921.864136,109.408081 
	C922.792847,112.357643 923.796265,114.897614 924.885681,117.655106 
	C916.138062,120.826302 907.702881,123.818176 899.323364,126.958893 
	C896.494446,128.019211 894.476379,127.733498 892.524475,125.142006 
	C888.887817,120.313919 884.096802,119.075188 878.496094,121.538795 
	C877.572021,126.611435 877.812500,127.309761 883.182922,128.765442 
	C891.316101,130.969971 899.546997,132.814178 907.736328,134.811462 
z"/>
<path fill="#3967FF" opacity="1.000000" stroke="none" 
	d="
M1046.046875,161.114044 
	C1047.867798,160.027496 1050.305786,159.362579 1051.391724,157.773727 
	C1054.401611,153.369705 1057.474487,153.677994 1061.204590,156.550949 
	C1062.372070,157.450089 1063.808594,157.999771 1065.612671,159.161392 
	C1072.015625,162.812347 1077.927734,166.011337 1083.839966,169.210297 
	C1083.839966,169.210297 1083.848389,169.040695 1083.885620,169.459274 
	C1087.881592,172.813034 1084.481445,175.172485 1083.041016,177.234573 
	C1068.895996,197.484955 1040.076416,203.795776 1017.868958,193.099670 
	C1009.888184,189.255768 1003.395569,182.322449 996.223755,176.799088 
	C996.223755,176.799088 996.032715,176.834244 996.126160,176.530792 
	C995.815796,175.794495 995.411987,175.361633 995.008179,174.928757 
	C993.541443,172.119263 992.074768,169.309784 990.397339,165.809113 
	C987.194458,154.554611 986.115662,143.846970 987.758484,132.933990 
	C995.885010,99.116608 1030.711060,83.867882 1062.586670,96.361526 
	C1063.729980,96.866730 1064.322266,97.021935 1064.914429,97.177155 
	C1064.914429,97.177162 1064.938843,97.074745 1064.995605,97.354614 
	C1065.384644,97.742996 1065.716797,97.851501 1066.048950,97.960014 
	C1066.048950,97.960022 1066.011230,97.988068 1066.164917,98.269669 
	C1074.290405,103.667534 1081.567505,109.476570 1086.672729,118.622955 
	C1076.761963,124.146408 1067.261475,129.487335 1057.690674,134.698822 
	C1056.802124,135.182632 1055.466309,134.844925 1054.185547,134.648346 
	C1053.704590,134.239807 1053.376099,134.071579 1053.056885,133.945282 
	C1053.066284,133.987213 1053.099854,133.908066 1052.968506,133.591522 
	C1048.888672,128.709076 1043.788696,127.453629 1037.993530,127.969276 
	C1031.981079,128.504272 1026.691162,133.387634 1024.674072,140.450302 
	C1022.780579,147.080185 1024.778564,153.770462 1029.718750,157.239380 
	C1029.750000,157.240631 1029.769531,157.181259 1029.758545,157.488617 
	C1030.161621,158.226364 1030.575439,158.656754 1031.183350,159.395706 
	C1035.985840,163.100693 1040.983765,162.446030 1046.046875,161.114044 
z"/>
<path fill="#3A67FF" opacity="1.000000" stroke="none" 
	d="
M574.703430,60.025734 
	C574.915039,56.279167 575.126709,52.532600 575.383545,47.985668 
	C587.773254,47.985668 599.929688,47.985668 612.642395,48.385788 
	C613.230469,49.849689 613.262329,50.913471 613.196594,52.376968 
	C613.125183,53.868969 613.151245,54.961254 613.113281,56.513004 
	C613.026001,102.981949 613.002686,148.991425 612.747559,195.099182 
	C612.357239,195.252609 612.198669,195.307785 611.577576,195.256226 
	C602.360657,195.395493 593.606262,195.641495 584.466736,195.862213 
	C582.063965,195.641022 580.046448,195.445129 577.670654,195.162872 
	C576.582703,194.976013 575.853027,194.875488 575.123352,194.774963 
	C575.123352,194.774963 575.056458,194.357895 575.036682,193.707703 
	C575.038086,149.863266 575.062134,106.669044 575.064636,63.474808 
	C575.064758,62.325123 574.829163,61.175423 574.703430,60.025734 
z"/>
<path fill="#3966FF" opacity="1.000000" stroke="none" 
	d="
M938.091919,194.968414 
	C938.091919,161.723495 938.091919,128.478561 938.091919,94.628914 
	C942.992554,94.628914 947.588440,94.628914 953.026672,94.713074 
	C958.933899,94.811554 963.998840,94.825882 969.493164,94.901627 
	C971.536133,95.058907 973.149597,95.154762 975.419189,95.289612 
	C975.419189,128.900375 975.419189,162.193604 975.419189,194.968414 
	C962.915771,194.968414 950.503845,194.968414 938.091919,194.968414 
z"/>
<path fill="#E2E2E3" opacity="1.000000" stroke="none" 
	d="
M575.088196,195.172424 
	C575.853027,194.875488 576.582703,194.976013 577.842590,195.437561 
	C581.637024,199.527374 585.621033,201.317413 590.695374,201.057556 
	C595.838806,200.794144 601.006409,201.017487 606.163330,200.997253 
	C616.080139,200.958344 618.991882,198.080139 618.993042,188.304230 
	C618.997986,147.048294 618.943542,105.792213 619.059204,64.536606 
	C619.073975,59.267105 617.348389,55.185890 613.294067,51.977253 
	C613.262329,50.913471 613.230469,49.849689 613.112671,48.395603 
	C618.277405,46.949505 622.949158,51.939522 622.974304,58.910786 
	C623.038940,76.847336 622.824646,94.787415 623.151306,112.718254 
	C623.212463,116.074371 625.269043,119.394142 626.725098,122.896484 
	C624.221130,135.435410 622.784912,147.770844 625.710022,160.443115 
	C628.851196,174.051651 636.115906,184.603104 647.798401,193.083862 
	C648.839417,193.691879 649.429993,193.845749 650.020569,193.999619 
	C650.020569,193.999619 649.997864,194.004532 649.995361,194.350113 
	C653.255188,196.789780 656.267334,199.602631 659.827209,200.841797 
	C670.085693,204.412796 680.318909,203.444778 690.550476,199.824524 
	C693.910278,198.635712 697.978027,198.529556 701.558044,199.051941 
	C712.591675,200.661865 723.583862,202.302338 734.516357,198.937744 
	C736.204041,198.418335 738.117249,196.526855 738.660400,194.857895 
	C739.615601,191.923096 739.917236,188.671249 739.928528,185.550125 
	C740.016907,161.073715 739.939636,136.596741 739.992310,112.120110 
	C740.003601,106.883530 738.856750,102.265282 734.465515,98.938988 
	C734.464233,98.145874 734.462891,97.352768 734.651001,96.206665 
	C741.300964,98.545181 743.947754,103.726028 743.972717,110.375793 
	C744.045166,129.653915 743.994507,148.932465 744.008972,168.210861 
	C744.010193,169.865692 744.136902,171.520447 744.424438,173.507538 
	C746.347717,181.375626 752.273682,185.762238 757.778564,191.255890 
	C766.996338,199.549332 777.791382,201.878647 788.990234,203.526062 
	C788.984802,206.238632 788.984802,208.530380 788.984802,211.289688 
	C787.436096,210.616608 786.720825,210.305771 785.847534,209.684814 
	C781.634766,207.602982 777.711670,205.376511 773.497131,204.158005 
	C765.685059,201.899445 758.649658,198.518234 753.055786,192.523972 
	C750.714172,190.014755 748.547119,187.342606 745.559937,183.887802 
	C744.436462,187.671387 743.722107,189.678436 743.248169,191.740723 
	C740.911011,201.909210 738.734802,203.966385 726.641296,204.822525 
	C722.164612,205.139420 720.710815,206.810104 720.762329,210.937729 
	C720.532166,211.018829 720.058899,211.138504 719.786377,210.965790 
	C718.429871,210.155289 717.345886,209.517487 716.073853,208.588440 
	C709.825256,201.884460 702.767883,201.779556 695.181030,205.025482 
	C687.279419,205.683029 679.377563,206.888977 671.476257,206.885223 
	C654.451477,206.877106 641.914062,198.470032 632.825378,184.513565 
	C629.969788,180.128693 627.450317,175.524963 624.777039,171.021378 
	C624.352112,171.120972 623.927246,171.220581 623.502319,171.320190 
	C623.006775,176.786789 622.523376,182.254532 622.009827,187.719437 
	C621.794128,190.015533 621.688110,192.340729 621.232239,194.591934 
	C619.859314,201.370850 616.919250,204.449051 610.083984,204.838318 
	C602.122498,205.291718 594.103516,205.227829 586.132690,204.870667 
	C579.811707,204.587402 575.748657,200.783752 575.088196,195.172424 
z"/>
<path fill="#E2E2E3" opacity="1.000000" stroke="none" 
	d="
M574.465637,60.357063 
	C574.829163,61.175423 575.064758,62.325123 575.064636,63.474808 
	C575.062134,106.669044 575.038086,149.863266 574.941895,193.518951 
	C574.220398,187.954926 573.573792,181.929443 572.819885,174.903320 
	C570.928589,176.722580 569.432068,177.911484 568.236633,179.350510 
	C555.268555,194.960785 538.827393,204.119766 518.684937,207.132156 
	C497.899780,210.240692 478.987640,205.466339 461.986664,193.799576 
	C449.615997,185.310287 440.054352,174.039871 435.062927,159.516510 
	C434.326233,157.372940 434.334534,154.973312 434.034698,152.251816 
	C439.530396,162.665802 445.609741,173.085602 454.905518,181.215302 
	C457.027008,183.070663 459.248871,184.811310 461.809143,187.045410 
	C462.503357,187.624344 462.812927,187.762604 463.122528,187.900864 
	C463.122528,187.900864 463.020020,187.926636 463.149719,188.219070 
	C464.118439,189.301346 464.880615,190.198029 465.807922,190.865189 
	C483.751282,203.774307 504.050568,205.178925 524.706238,201.352463 
	C539.325256,198.644302 551.697388,190.688202 561.907043,179.635651 
	C566.165710,175.025421 568.619080,170.226776 565.364258,164.051270 
	C555.626221,158.264404 545.888123,152.477539 536.362915,146.361664 
	C541.816467,147.972458 547.345215,149.372787 552.229370,151.980362 
	C559.300537,155.755585 565.905457,160.404327 573.304382,165.054489 
	C573.616333,163.024612 573.973572,161.775406 573.975769,160.525574 
	C574.011169,140.228394 574.032959,119.931007 573.948059,99.634132 
	C573.940491,97.823288 573.174805,96.015617 572.619446,93.586456 
	C565.606262,97.794281 559.325134,101.444939 553.161621,105.284248 
	C538.211060,114.597038 537.102051,114.629463 522.735535,105.183006 
	C522.596985,105.091904 522.477173,104.972855 522.340881,104.877800 
	C515.386292,100.025658 507.506866,99.762604 499.860901,101.710304 
	C479.225098,106.966988 475.721710,130.569183 484.128448,144.313782 
	C487.315613,149.524643 492.660858,153.415573 497.022461,157.908127 
	C492.126221,155.822296 487.230042,153.736465 482.154968,150.973160 
	C480.315094,142.075546 477.368744,133.872726 477.257721,125.631714 
	C477.018341,107.864807 495.303345,93.989586 512.541504,97.674461 
	C516.722839,98.568260 520.982178,99.096672 525.205688,99.793098 
	C525.205688,99.793098 525.152466,99.924507 525.209717,100.132263 
	C525.757263,100.572517 526.247498,100.805008 526.737793,101.037491 
	C527.918396,102.540337 529.098938,104.043190 530.898071,105.881584 
	C535.052368,108.615585 538.549927,108.549820 542.225708,106.373917 
	C548.777161,102.495773 555.497681,98.899696 561.999329,94.942154 
	C567.943604,91.323944 568.172546,89.869156 564.888550,83.050026 
	C564.888550,83.050026 564.974304,83.012184 564.883179,82.782074 
	C564.490051,82.350914 564.187927,82.149857 563.885864,81.948792 
	C556.234497,71.196938 545.994934,63.570461 534.244385,57.262283 
	C543.514343,57.021442 550.784485,61.938168 557.312866,67.952339 
	C562.394531,72.633797 566.898499,77.942322 571.659241,82.972145 
	C572.205872,82.723366 572.752502,82.474586 573.299072,82.225815 
	C573.608643,75.046677 573.918213,67.867538 574.465637,60.357063 
z"/>
<path fill="#CACBCE" opacity="1.000000" stroke="none" 
	d="
M892.939697,212.040771 
	C896.589844,214.642273 900.239990,217.243774 904.295410,220.368500 
	C904.810547,224.239365 904.920410,227.587006 905.022888,231.129990 
	C905.015442,231.325333 905.005615,231.716171 905.005615,231.716171 
	C895.151611,237.623871 884.139160,237.906235 873.185059,237.922958 
	C863.392578,237.937912 853.601074,237.188095 843.805359,237.056122 
	C839.013733,236.991562 834.200256,237.425186 829.420349,237.881500 
	C822.273743,238.563736 815.438293,237.965729 809.395142,233.668213 
	C806.985291,231.954498 804.804932,231.957199 802.795532,234.106430 
	C797.848877,239.397598 791.638733,238.166351 785.515259,237.621765 
	C781.954224,237.305084 778.379150,237.102600 774.805908,236.974564 
	C767.745728,236.721603 760.682861,236.536499 753.620117,236.363617 
	C750.639587,236.290665 747.654724,236.244843 744.674988,236.318008 
	C738.780090,236.462738 732.886414,236.675491 726.994019,236.904755 
	C722.593567,237.075989 718.169250,237.081238 713.802307,237.574478 
	C703.403748,238.748993 698.142578,238.702271 695.233582,229.449051 
	C697.388367,229.766724 699.193237,230.466568 701.240601,231.426514 
	C707.864197,235.540634 713.969971,232.763458 720.540283,230.946442 
	C723.240295,230.940033 725.514221,230.899948 728.219604,230.904297 
	C729.802795,230.932281 730.954590,230.915833 732.526245,230.935089 
	C734.909119,230.938873 736.872192,230.906967 739.269653,230.915024 
	C741.151611,230.943130 742.599121,230.931274 744.492737,230.951019 
	C746.858337,230.982605 748.777832,230.982605 750.940125,230.982605 
	C750.940125,225.176971 750.940125,220.056992 751.229187,215.044617 
	C752.046875,215.468491 752.575562,215.784775 753.060303,216.541138 
	C753.379761,220.200211 752.939209,223.818024 754.292603,226.545731 
	C756.379944,230.752548 762.966553,232.506165 767.504395,230.703949 
	C772.163818,228.853455 774.513000,225.355591 773.898865,220.136658 
	C773.705872,218.496323 773.800110,216.822205 774.130920,215.129013 
	C774.991516,215.102234 775.484070,215.109985 775.929443,215.512115 
	C772.335266,230.074463 780.232788,232.883575 796.732300,230.302551 
	C796.732300,221.263504 796.732300,212.200882 797.154297,203.102417 
	C799.663330,202.566345 801.729370,201.939194 803.841370,201.590240 
	C809.551819,200.646744 815.281860,199.821548 820.827820,199.250519 
	C816.601257,201.368759 812.466370,203.023865 808.537354,205.073502 
	C806.661194,206.052216 805.175598,207.779892 803.513123,209.168304 
	C803.773071,209.622833 804.033081,210.077377 804.293091,210.531906 
	C805.530701,210.711411 806.768372,210.890915 807.935120,211.528717 
	C807.864258,218.232788 807.864258,224.478546 807.864258,230.561310 
	C810.719849,230.561310 812.780823,230.561310 814.582581,230.561310 
	C815.122620,226.224457 815.607666,222.328873 816.092773,218.433289 
	C816.703186,218.471634 817.313660,218.509979 817.924072,218.548325 
	C817.924072,222.561752 817.924072,226.575195 817.924072,230.543808 
	C821.413147,230.543808 824.118164,230.543808 826.744934,230.543808 
	C827.208496,226.213821 827.624084,222.331482 828.039734,218.449127 
	C828.442871,218.429901 828.846008,218.410660 829.249146,218.391434 
	C829.556519,220.422699 830.040100,222.445404 830.139282,224.486801 
	C830.485046,231.600388 830.680603,231.795593 838.348145,230.204666 
	C838.348145,225.561951 838.348145,220.767685 838.534546,216.109528 
	C838.935791,216.489273 839.037048,216.773438 839.073730,217.495667 
	C839.914673,223.410477 839.720215,229.505737 847.234009,231.477478 
	C858.737854,235.805466 869.863159,231.275787 881.269531,231.250824 
	C881.500305,231.164246 881.963196,230.994812 882.392822,230.996704 
	C884.254700,230.971725 885.687012,230.944839 887.556274,230.951233 
	C890.085815,230.984512 892.178345,230.984512 895.227051,230.984512 
	C894.412537,224.238617 893.676086,218.139694 892.939697,212.040771 
z"/>
<path fill="#ACADB1" opacity="1.000000" stroke="none" 
	d="
M821.004089,198.949402 
	C815.281860,199.821548 809.551819,200.646744 803.841370,201.590240 
	C801.729370,201.939194 799.663330,202.566345 796.733582,203.103226 
	C793.592407,203.128311 791.294006,203.116776 788.995605,203.105240 
	C777.791382,201.878647 766.996338,199.549332 758.078247,191.406525 
	C763.547058,192.893295 769.085938,195.171768 774.849670,196.353027 
	C792.675537,200.006439 809.986755,198.762802 825.018005,187.489044 
	C829.132812,184.402832 831.396545,178.848679 834.762329,174.189453 
	C844.061829,191.301254 859.652832,197.511841 877.871765,197.765518 
	C886.481445,197.885422 895.451477,196.565308 903.689575,194.041412 
	C923.058777,188.107330 931.033264,172.095993 925.467224,152.613113 
	C924.922119,150.705017 924.378662,148.796448 923.839111,146.489334 
	C926.520081,149.527969 930.666443,152.600327 931.625793,156.464066 
	C936.557922,176.327347 929.868164,192.398148 909.351807,199.823486 
	C900.794434,202.920563 891.265991,203.382523 882.148071,204.850113 
	C879.742126,205.237381 877.220947,204.908539 874.206909,204.908539 
	C874.206909,206.928192 874.206909,208.523102 874.207397,211.027344 
	C874.207886,218.114426 874.207886,224.292175 874.207886,230.634048 
	C876.873718,230.908554 878.956177,231.122986 881.038696,231.337418 
	C869.863159,231.275787 858.737854,235.805466 847.697144,231.386444 
	C852.135925,231.068405 856.395691,231.068405 861.361389,231.068405 
	C861.361389,224.215530 861.361389,218.112152 861.574829,212.207733 
	C862.482178,213.312622 863.176147,214.218536 863.929443,215.574188 
	C863.988831,220.912598 863.988831,225.801300 863.988831,230.614838 
	C867.112244,230.614838 869.319397,230.614838 871.398315,230.614838 
	C871.630005,229.924850 871.819763,229.620728 871.821228,229.315674 
	C871.839050,225.688431 871.855042,222.060806 871.820374,218.433762 
	C871.749451,211.007111 871.736633,211.007233 864.163208,210.670319 
	C864.162842,209.529541 864.202881,208.768417 864.551208,208.140015 
	C866.129456,208.915543 867.399475,209.558350 869.395325,210.568527 
	C870.163757,208.381042 871.583740,206.368240 871.187012,204.821396 
	C870.873840,203.600159 868.379517,202.830933 866.744324,202.109100 
	C866.093872,201.821991 865.148376,202.203415 863.970215,202.186768 
	C857.472107,198.198456 851.228943,194.466995 845.243164,190.360458 
	C839.924377,186.711517 837.913574,186.696762 832.652466,190.755066 
	C828.897095,193.651749 824.895691,196.229385 821.004089,198.949402 
z"/>
<path fill="#CACBCC" opacity="1.000000" stroke="none" 
	d="
M938.178467,195.288910 
	C950.503845,194.968414 962.915771,194.968414 975.419189,194.968414 
	C975.419189,162.193604 975.419189,128.900375 975.419189,95.289612 
	C973.149597,95.154762 971.536133,95.058907 969.629211,94.603027 
	C970.183716,93.025314 971.119751,91.858948 971.864502,90.581093 
	C975.153503,84.937363 979.107849,79.540649 981.440796,73.519592 
	C983.819336,67.380905 980.062683,59.421364 975.021240,56.984558 
	C974.999207,56.998478 975.032898,56.958267 975.010376,56.657272 
	C974.631897,55.909710 974.275818,55.463146 973.647217,54.826477 
	C970.243164,52.088932 967.111633,49.541500 963.980042,46.994072 
	C976.773865,47.117344 992.242249,66.641022 983.108521,79.907799 
	C982.547546,80.722656 982.326050,81.793312 981.700317,82.538055 
	C976.455872,88.780350 974.772461,94.013420 982.214661,100.781586 
	C985.134583,103.437088 983.799194,110.700806 984.536194,115.846611 
	C985.335205,121.425095 986.290833,126.981148 987.468323,132.740479 
	C986.115662,143.846970 987.194458,154.554611 990.212891,165.526855 
	C988.786194,164.874908 987.333130,163.814026 984.920654,162.052643 
	C984.235474,166.354523 983.271606,170.214569 983.080139,174.112549 
	C982.779114,180.241028 983.030396,186.395294 982.988281,192.538239 
	C982.945251,198.811203 979.568848,202.675919 973.367981,202.861298 
	C965.073853,203.109268 956.671875,203.653976 948.508484,202.592300 
	C944.853149,202.116898 941.665161,198.047729 938.178467,195.288910 
z"/>
<path fill="#B8B8B8" opacity="1.000000" stroke="none" 
	d="
M1186.008789,193.991211 
	C1193.971436,193.657608 1201.931519,193.220047 1209.897583,193.022964 
	C1216.379028,192.862625 1222.867676,192.990387 1230.352539,192.990387 
	C1226.450317,186.265549 1223.014526,180.130096 1219.376465,174.117004 
	C1209.907959,158.466721 1200.392578,142.844284 1190.795288,127.272758 
	C1188.766846,123.981613 1188.254639,120.846230 1190.298462,117.467842 
	C1202.002930,98.120819 1213.654907,78.741547 1225.507935,59.485874 
	C1226.596069,57.718189 1228.972290,56.743309 1231.345459,54.950798 
	C1232.645386,61.638977 1231.561890,66.344559 1228.666992,70.997192 
	C1219.091553,86.387497 1209.709717,101.899628 1200.378662,117.440048 
	C1196.313354,124.210495 1197.755005,130.694397 1201.704346,137.131546 
	C1211.442017,153.003754 1220.997681,168.987732 1230.602417,184.941238 
	C1231.281494,186.069183 1231.830322,187.288391 1232.328003,188.510590 
	C1235.368652,195.976395 1233.443359,199.586243 1225.323242,199.938477 
	C1215.347412,200.371216 1205.308472,200.424866 1195.358032,199.744553 
	C1192.154053,199.525513 1189.144409,196.465195 1186.022949,194.352280 
	C1186.000000,193.999878 1186.008789,193.991211 1186.008789,193.991211 
z"/>
<path fill="#3A67FF" opacity="1.000000" stroke="none" 
	d="
M963.994263,46.995171 
	C967.111633,49.541500 970.243164,52.088932 973.696045,55.119316 
	C974.355896,56.054268 974.694397,56.506264 975.032898,56.958263 
	C975.032898,56.958267 974.999207,56.998478 975.062012,57.372002 
	C978.972656,66.751923 977.711975,74.667725 971.419922,81.008636 
	C964.899963,87.579254 957.741516,88.753319 948.291321,84.859772 
	C947.250732,84.431046 946.102539,84.263412 945.004272,83.974686 
	C945.004272,83.974678 944.997009,84.002785 944.933960,83.720284 
	C944.510193,83.334435 944.149475,83.231094 943.788818,83.127747 
	C928.764954,67.941078 938.119507,51.708485 950.738464,47.037315 
	C953.272827,46.099148 956.240784,46.332211 959.686279,46.329323 
	C961.580811,46.763252 962.797791,46.893127 964.014771,47.022999 
	C964.014771,47.022999 964.008484,46.996273 963.994263,46.995171 
z"/>
<path fill="#ADADAD" opacity="1.000000" stroke="none" 
	d="
M218.923645,140.068237 
	C222.478943,148.513565 226.282776,156.468155 229.169281,164.742737 
	C231.525848,171.498260 230.807114,172.307175 224.485870,175.696136 
	C218.357895,178.981476 212.316772,182.649719 204.745514,181.672989 
	C203.104172,178.229538 203.850967,176.115204 207.524902,174.775269 
	C212.356506,173.013138 216.979813,170.668167 221.836838,168.991394 
	C225.247650,167.813873 225.740860,166.225754 224.308868,163.075195 
	C219.703491,152.942642 215.303894,142.716568 210.822113,132.527802 
	C210.221512,131.162445 209.510880,129.837646 209.011490,128.436935 
	C206.589615,121.643791 207.022308,121.194710 213.017471,117.438393 
	C235.273224,103.493904 257.416168,89.369423 279.639130,75.288712 
	C277.125702,70.384239 274.746429,65.741554 272.367157,61.098877 
	C273.008179,60.742027 273.649231,60.385181 274.290253,60.028332 
	C277.620361,65.686310 281.034149,71.298683 284.173340,77.060684 
	C284.560181,77.770775 283.810181,79.636993 283.026276,80.356583 
	C279.364532,83.717857 275.800568,87.317734 271.665100,90.007225 
	C256.618988,99.792351 241.357895,109.246918 226.179062,118.828041 
	C225.476166,119.271713 224.782852,119.730690 224.088669,120.187988 
	C213.273026,127.312881 213.052826,128.123001 218.923645,140.068237 
z"/>
<path fill="#EAEBED" opacity="1.000000" stroke="none" 
	d="
M841.052490,116.066437 
	C841.339111,122.006866 840.457458,127.934868 841.437500,133.537170 
	C843.531982,145.509506 851.763977,152.290070 862.948059,155.874512 
	C864.523315,156.379379 866.127991,156.792496 867.810425,157.745895 
	C867.563232,158.527145 867.224670,158.810593 866.886169,159.094025 
	C856.491272,163.926422 846.096436,168.758804 835.389343,173.744675 
	C837.620422,163.251984 837.872742,152.652832 829.954651,144.210693 
	C826.066223,140.064911 820.244446,137.732376 815.217285,134.034821 
	C818.220337,131.663589 821.102844,129.228012 824.427124,128.131088 
	C832.437622,125.487801 838.175354,121.648163 836.196716,111.944839 
	C837.707092,113.265358 839.217529,114.585876 841.052490,116.066437 
z"/>
<path fill="#CBCBCE" opacity="1.000000" stroke="none" 
	d="
M905.276184,231.947495 
	C905.005615,231.716171 905.015442,231.325333 905.450256,231.153656 
	C912.910767,230.874939 912.915161,230.874985 912.981140,223.768417 
	C912.999634,221.770554 912.983948,219.772354 912.983948,217.774323 
	C913.655762,217.742554 914.327515,217.710800 914.999329,217.679031 
	C915.537659,222.028717 916.075989,226.378418 916.623047,230.798050 
	C919.071655,230.798050 921.376648,230.798050 924.069580,230.862427 
	C925.653748,230.673630 926.850098,230.420471 928.495667,230.204758 
	C931.173523,230.242218 933.402161,230.242218 936.344971,230.242218 
	C935.529663,223.938553 934.819580,218.448151 934.109497,212.957764 
	C935.513916,212.993210 936.918335,213.028656 938.689087,213.499542 
	C938.566650,217.424301 936.979126,221.202896 937.806580,224.345596 
	C939.830566,232.032486 949.094604,233.599655 957.849121,227.867569 
	C955.733643,226.622681 953.833008,225.504227 951.669556,224.231094 
	C954.069763,224.038391 956.144043,223.871857 958.408813,223.690033 
	C957.878662,220.628815 957.402161,217.877380 956.925659,215.125931 
	C958.422241,213.102570 958.181885,209.042786 962.399658,210.734894 
	C961.518738,211.862030 960.126526,212.586639 960.101624,213.355438 
	C959.915955,219.101608 960.000793,224.856522 960.000793,230.857193 
	C962.562378,230.857193 964.694824,230.857193 967.275757,230.902634 
	C969.226379,230.906998 970.728577,230.865906 972.665771,230.871002 
	C975.210938,230.917175 977.321167,230.917175 980.298828,230.917175 
	C979.868774,225.004227 979.467712,219.490463 979.066650,213.976685 
	C979.542297,214.048920 980.017883,214.121155 980.799805,214.654022 
	C981.597534,219.017471 981.805969,222.988297 982.719543,226.789658 
	C983.086792,228.317902 984.912842,230.504761 986.227722,230.617981 
	C991.388062,231.062408 996.609314,230.799850 1002.228760,230.799850 
	C1002.228760,224.091995 1002.228760,217.989365 1002.228760,211.886734 
	C1010.615112,216.202530 1011.295776,224.178436 1009.326599,231.028076 
	C1007.493286,237.405151 1002.538208,239.347977 993.382507,238.295761 
	C986.483032,237.502838 979.582336,236.671326 972.660034,236.149933 
	C969.896484,235.941772 967.076843,236.642838 964.277100,236.717300 
	C957.542175,236.896393 950.801636,236.875793 944.067444,237.073166 
	C936.122437,237.306046 928.177795,237.608597 920.240356,238.023392 
	C914.396729,238.328766 909.449707,236.629410 905.276184,231.947495 
z"/>
<path fill="#AAABAD" opacity="1.000000" stroke="none" 
	d="
M83.948555,211.618774 
	C103.091545,218.128845 120.598129,211.310867 137.467178,203.452545 
	C157.590515,194.078262 177.109543,183.406815 197.291138,173.092484 
	C193.965057,167.035110 191.119247,161.852402 188.592117,156.333740 
	C189.985535,155.948654 191.060257,155.899506 192.134979,155.850372 
	C195.047760,162.289932 198.203217,168.638260 200.684967,175.239838 
	C201.234268,176.701019 199.950699,180.156219 198.584961,180.837967 
	C175.458145,192.382324 152.302460,203.884613 128.892242,214.838577 
	C117.881813,219.990509 105.885895,221.357101 93.968033,218.739914 
	C90.337662,217.942688 87.336182,214.281662 83.948555,211.618774 
z"/>
<path fill="#BDBEC0" opacity="1.000000" stroke="none" 
	d="
M996.174683,177.165070 
	C1003.395569,182.322449 1009.888184,189.255768 1017.868958,193.099670 
	C1040.076416,203.795776 1068.895996,197.484955 1083.041016,177.234573 
	C1084.481445,175.172485 1087.881592,172.813034 1083.872559,169.546082 
	C1092.150635,171.955460 1094.888916,175.164490 1088.146606,184.383224 
	C1066.693604,213.715561 1016.741089,211.506561 997.528076,180.684799 
	C996.925293,179.717896 996.587097,178.586044 996.174683,177.165070 
z"/>
<path fill="#B8B8B8" opacity="1.000000" stroke="none" 
	d="
M1173.836792,176.152435 
	C1172.480835,174.979446 1171.124878,173.806427 1169.212524,172.152176 
	C1166.547485,176.001236 1163.729248,180.006287 1160.987305,184.063065 
	C1159.873169,185.711578 1158.928345,187.474335 1157.901367,189.181992 
	C1153.417358,196.637466 1147.809814,201.416336 1138.106567,200.271164 
	C1130.724976,199.399963 1123.156250,199.987564 1115.674805,200.131729 
	C1110.975342,200.222260 1107.496094,198.231445 1104.666992,193.442535 
	C1115.652100,193.292892 1126.655151,192.712097 1137.614624,193.170517 
	C1143.327759,193.409500 1146.243286,191.312378 1148.892090,186.623611 
	C1154.016113,177.553223 1159.736816,168.819855 1165.958130,158.734085 
	C1169.048340,164.889786 1171.598511,169.969604 1174.095459,175.506424 
	C1174.042358,175.963425 1173.836792,176.152420 1173.836792,176.152435 
z"/>
<path fill="#C0C1C3" opacity="1.000000" stroke="none" 
	d="
M1045.603516,161.056458 
	C1040.983765,162.446030 1035.985840,163.100693 1031.167480,159.075562 
	C1030.561523,158.024994 1030.165527,157.603134 1029.769531,157.181274 
	C1029.769531,157.181259 1029.750000,157.240631 1029.825684,156.831665 
	C1029.703125,155.469376 1029.582031,154.492096 1029.294800,153.566406 
	C1026.576782,144.807220 1032.008179,134.508926 1041.135742,132.683014 
	C1044.891846,131.931641 1049.098267,133.431961 1053.099854,133.908066 
	C1053.099854,133.908066 1053.066284,133.987213 1053.177979,134.211487 
	C1053.639038,134.586746 1053.988647,134.737717 1054.338135,134.888672 
	C1055.466309,134.844925 1056.802124,135.182632 1057.690674,134.698822 
	C1067.261475,129.487335 1076.761963,124.146408 1086.672729,118.622955 
	C1081.567505,109.476570 1074.290405,103.667534 1066.169922,98.246758 
	C1074.599976,99.637543 1080.764160,105.263145 1086.416504,111.257927 
	C1088.853882,113.842964 1090.318604,117.657791 1091.288452,121.172470 
	C1091.726318,122.758926 1090.423218,125.821587 1088.969116,126.766273 
	C1081.739990,131.462814 1074.147095,135.594849 1066.789062,140.099915 
	C1063.642822,142.026260 1060.750488,141.786484 1057.352295,140.748291 
	C1052.186646,139.170181 1046.870972,137.783524 1041.522339,137.194702 
	C1036.889160,136.684616 1033.150024,140.857498 1033.000366,145.499649 
	C1032.968140,146.496948 1033.070679,147.502884 1032.982544,148.493378 
	C1032.227661,156.970123 1034.881958,162.243912 1045.603516,161.056458 
z"/>
<path fill="#E3E4E6" opacity="1.000000" stroke="none" 
	d="
M147.934692,122.733315 
	C155.668762,118.271477 163.421799,114.152496 171.666763,109.772163 
	C162.321350,95.419006 155.671310,79.598518 137.910614,73.450630 
	C142.391846,73.482788 147.116394,73.785103 153.090836,74.167404 
	C150.790939,68.698875 148.618332,64.050148 146.868317,59.247440 
	C144.411606,52.505375 142.268936,45.648876 139.995972,38.420662 
	C140.000000,38.000000 140.001831,37.998169 140.001831,37.998169 
	C143.042099,43.435574 146.467117,48.696869 149.051361,54.342995 
	C157.195618,72.136673 164.987167,90.091484 173.012817,107.940041 
	C174.311066,110.827232 174.263168,112.729935 171.212509,114.522141 
	C164.235321,118.621124 157.447617,123.042656 149.948090,127.730003 
	C149.043243,125.618652 148.498444,124.347420 147.934692,122.733315 
z"/>
<path fill="#3C69FE" opacity="1.000000" stroke="none" 
	d="
M700.998108,231.166397 
	C699.193237,230.466568 697.388367,229.766724 695.211182,229.084290 
	C688.245361,221.415741 688.276184,214.255371 695.060425,205.356232 
	C702.767883,201.779556 709.825256,201.884460 715.778076,208.863220 
	C711.959229,209.838547 708.224792,210.713776 704.543823,210.528030 
	C700.748779,210.336472 698.457275,211.960754 698.236877,215.215790 
	C698.067566,217.716980 698.839722,221.198441 700.547546,222.645584 
	C702.169617,224.020035 705.550415,223.318924 708.157837,223.530457 
	C708.194641,223.082642 708.231445,222.634827 708.268250,222.187012 
	C706.834473,221.511932 705.400635,220.836838 703.939514,220.148865 
	C704.044739,218.084320 704.135437,216.304611 704.228210,214.484283 
	C708.933411,214.484283 713.297729,214.484283 717.611084,214.484283 
	C718.338379,223.780701 714.624573,229.398117 706.968018,230.836304 
	C705.025940,231.201111 702.990601,231.069778 700.998108,231.166397 
z"/>
<path fill="#3B68FE" opacity="1.000000" stroke="none" 
	d="
M933.809631,212.709015 
	C934.819580,218.448151 935.529663,223.938553 936.344971,230.242218 
	C933.402161,230.242218 931.173523,230.242218 928.494751,229.726044 
	C928.033325,226.386261 928.196716,223.545044 927.914978,220.748688 
	C927.817993,219.785645 926.611328,218.934387 925.911621,218.032028 
	C925.256042,218.969894 924.127014,219.862244 924.031616,220.854004 
	C923.714783,224.149429 923.769470,227.480591 923.681763,230.798050 
	C921.376648,230.798050 919.071655,230.798050 916.623047,230.798050 
	C916.075989,226.378418 915.537659,222.028717 914.999329,217.679031 
	C914.327515,217.710800 913.655762,217.742554 912.983948,217.774323 
	C912.983948,219.772354 912.999634,221.770554 912.981140,223.768417 
	C912.915161,230.874985 912.910767,230.874939 905.457703,230.958313 
	C904.920410,227.587006 904.810547,224.239365 904.606812,220.447571 
	C904.661011,217.203506 904.808960,214.403595 905.023193,210.350159 
	C914.618286,211.060898 924.064026,211.760574 933.809631,212.709015 
z"/>
<path fill="#D4D4D5" opacity="1.000000" stroke="none" 
	d="
M107.763969,186.029724 
	C106.089325,186.746323 104.010864,187.348709 101.505310,187.498169 
	C100.902107,183.622955 99.791573,179.924118 100.708694,176.825394 
	C105.106842,161.965240 109.341469,146.985535 115.035088,132.602875 
	C119.431450,121.497200 124.514839,110.181602 136.025116,103.963417 
	C137.296478,105.754082 138.567825,107.544754 139.908920,109.662064 
	C132.687653,110.376617 129.070480,115.243614 125.939339,121.063652 
	C117.720337,136.340759 110.694191,152.062698 107.454491,169.217697 
	C106.628952,173.589157 106.358696,178.079269 106.079636,182.530334 
	C106.010841,183.627655 106.907379,184.785477 107.763969,186.029724 
z"/>
<path fill="#C4C4C5" opacity="1.000000" stroke="none" 
	d="
M190.627106,72.348862 
	C193.349319,78.805389 196.095078,84.857483 198.317200,91.096092 
	C199.026093,93.086327 198.345322,95.571533 198.300400,97.830261 
	C197.485123,97.939354 196.669846,98.048439 195.854568,98.157532 
	C185.659866,74.461411 174.360168,51.235859 165.421875,27.004704 
	C166.109543,26.517601 166.797226,26.030499 167.484894,25.543396 
	C169.070145,27.210098 171.245972,28.608246 172.145630,30.586700 
	C178.394714,44.329231 184.378738,58.192287 190.627106,72.348862 
z"/>
<path fill="#ABACAF" opacity="1.000000" stroke="none" 
	d="
M907.854126,134.487091 
	C899.546997,132.814178 891.316101,130.969971 883.182922,128.765442 
	C877.812500,127.309761 877.572021,126.611435 878.496094,121.538795 
	C884.096802,119.075188 888.887817,120.313919 892.524475,125.142006 
	C894.476379,127.733498 896.494446,128.019211 899.323364,126.958893 
	C907.702881,123.818176 916.138062,120.826302 924.885681,117.655106 
	C923.796265,114.897614 922.792847,112.357643 921.846802,109.442245 
	C926.619934,111.214638 929.985168,117.011497 928.779480,121.441956 
	C928.500061,122.468620 927.153992,123.381233 926.094177,123.990150 
	C920.087830,127.440910 914.019226,130.783386 907.854126,134.487091 
z"/>
<path fill="#D1D2D4" opacity="1.000000" stroke="none" 
	d="
M192.107880,155.470642 
	C191.060257,155.899506 189.985535,155.948654 188.509888,155.998108 
	C186.837799,154.092621 185.566650,152.186813 184.240707,150.198883 
	C170.269974,157.698486 156.412567,165.137253 142.221786,172.639923 
	C137.899353,166.413101 133.852341,160.157883 129.963562,153.805786 
	C129.035751,152.290253 128.636154,150.451309 127.996979,148.380402 
	C128.000351,147.999664 128.008698,147.991440 128.008698,147.991440 
	C131.609375,152.554535 135.190231,157.133530 138.828537,161.666428 
	C139.504913,162.509109 140.412460,163.166260 141.922852,164.096832 
	C145.340118,164.077286 148.445526,164.648834 150.677368,163.509384 
	C156.278351,160.649811 161.389282,156.849091 166.872955,153.736221 
	C173.472305,149.990067 180.253860,146.564880 186.956528,143.000732 
	C188.664612,147.030792 190.372696,151.060852 192.107880,155.470642 
z"/>
<path fill="#4670FA" opacity="1.000000" stroke="none" 
	d="
M1001.934265,211.586960 
	C1002.228760,217.989365 1002.228760,224.091995 1002.228760,230.799850 
	C996.609314,230.799850 991.388062,231.062408 986.227722,230.617981 
	C984.912842,230.504761 983.086792,228.317902 982.719543,226.789658 
	C981.805969,222.988297 981.597534,219.017471 981.154480,214.722260 
	C983.673157,209.760025 986.917053,209.854614 993.436890,214.940842 
	C993.754822,213.637955 994.033081,212.497421 994.412354,210.943024 
	C996.764587,211.055038 999.202209,211.171112 1001.934265,211.586960 
z"/>
<path fill="#E8E8E8" opacity="1.000000" stroke="none" 
	d="
M1103.925293,62.169449 
	C1103.528564,60.562752 1103.218262,59.322132 1102.908081,58.081516 
	C1103.312988,57.854591 1103.717896,57.627663 1104.122803,57.400738 
	C1107.910400,62.979649 1111.916992,68.424156 1115.442261,74.164146 
	C1124.022339,88.134331 1132.382812,102.239456 1140.823120,116.295357 
	C1142.679810,119.387550 1144.141724,122.490700 1140.225952,125.876358 
	C1136.219360,119.038712 1132.370483,112.341347 1128.397339,105.718529 
	C1121.667114,94.499962 1114.771240,83.379700 1108.141846,72.102501 
	C1106.395020,69.131126 1105.369019,65.736031 1103.925293,62.169449 
z"/>
<path fill="#B5B7BE" opacity="1.000000" stroke="none" 
	d="
M944.987549,84.329201 
	C946.102539,84.263412 947.250732,84.431046 948.291321,84.859772 
	C957.741516,88.753319 964.899963,87.579254 971.419922,81.008636 
	C977.711975,74.667725 978.972656,66.751923 975.083984,57.358082 
	C980.062683,59.421364 983.819336,67.380905 981.440796,73.519592 
	C979.107849,79.540649 975.153503,84.937363 971.864502,90.581093 
	C971.119751,91.858948 970.183716,93.025314 969.199707,94.541611 
	C963.998840,94.825882 958.933899,94.811554 953.425781,94.666428 
	C950.312012,91.251656 947.641479,87.967682 944.987549,84.329201 
z"/>
<path fill="#3C69FE" opacity="1.000000" stroke="none" 
	d="
M956.604614,214.985519 
	C957.402161,217.877380 957.878662,220.628815 958.408813,223.690033 
	C956.144043,223.871857 954.069763,224.038391 951.669556,224.231094 
	C953.833008,225.504227 955.733643,226.622681 957.849121,227.867569 
	C949.094604,233.599655 939.830566,232.032486 937.806580,224.345596 
	C936.979126,221.202896 938.566650,217.424301 939.107178,213.554443 
	C945.167908,210.647873 951.093994,208.972885 956.604614,214.985519 
z"/>
<path fill="#3C69FE" opacity="1.000000" stroke="none" 
	d="
M881.269531,231.250824 
	C878.956177,231.122986 876.873718,230.908554 874.207886,230.634048 
	C874.207886,224.292175 874.207886,218.114426 874.234680,211.467590 
	C880.265991,211.181686 886.270447,211.364853 892.607300,211.794403 
	C893.676086,218.139694 894.412537,224.238617 895.227051,230.984512 
	C892.178345,230.984512 890.085815,230.984512 887.511292,230.499344 
	C886.973083,227.055023 887.135132,224.066788 886.746887,221.151855 
	C886.603455,220.074677 885.164795,219.170013 884.316772,218.186707 
	C883.551575,219.167572 882.222900,220.095886 882.125671,221.138977 
	C881.821655,224.400955 881.982544,227.706284 881.963196,230.994812 
	C881.963196,230.994812 881.500305,231.164246 881.269531,231.250824 
z"/>
<path fill="#3B68FE" opacity="1.000000" stroke="none" 
	d="
M966.827332,230.857193 
	C964.694824,230.857193 962.562378,230.857193 960.000793,230.857193 
	C960.000793,224.856522 959.915955,219.101608 960.101624,213.355438 
	C960.126526,212.586639 961.518738,211.862030 962.660889,210.965302 
	C968.257629,211.550232 974.008972,209.117264 978.838989,213.715927 
	C979.467712,219.490463 979.868774,225.004227 980.298828,230.917175 
	C977.321167,230.917175 975.210938,230.917175 972.599121,230.429230 
	C971.011536,226.016022 974.151428,220.988892 967.910706,218.007645 
	C967.549561,222.290833 967.188477,226.574005 966.827332,230.857193 
z"/>
<path fill="#ADADB1" opacity="1.000000" stroke="none" 
	d="
M836.004883,111.632187 
	C838.175354,121.648163 832.437622,125.487801 824.427124,128.131088 
	C821.102844,129.228012 818.220337,131.663589 814.953979,133.798599 
	C806.673218,132.276489 798.575378,130.446182 790.354004,128.038239 
	C792.485962,125.317024 794.741455,123.173454 796.996948,121.029877 
	C797.288391,121.179588 797.725647,121.252846 797.850037,121.490112 
	C801.865295,129.152161 807.648132,127.636780 814.013123,124.948074 
	C820.409119,122.246254 827.024414,120.063446 833.852417,117.539017 
	C832.881958,115.156273 831.966919,112.909752 831.032349,110.293976 
	C832.612854,110.389664 834.212952,110.854591 836.004883,111.632187 
z"/>
<path fill="#A8A8A8" opacity="1.000000" stroke="none" 
	d="
M186.949158,142.630920 
	C180.253860,146.564880 173.472305,149.990067 166.872955,153.736221 
	C161.389282,156.849091 156.278351,160.649811 150.677368,163.509384 
	C148.445526,164.648834 145.340118,164.077286 142.264404,164.134399 
	C153.549698,156.204361 165.191162,148.406708 176.866913,140.660782 
	C179.041901,139.217850 181.354721,137.982681 184.163208,136.320663 
	C185.204453,138.546783 186.073135,140.403961 186.949158,142.630920 
z"/>
<path fill="#C1C2C6" opacity="1.000000" stroke="none" 
	d="
M756.018127,147.309555 
	C766.064697,154.490982 778.073303,157.384750 789.808167,160.918304 
	C793.384338,161.995148 796.904968,162.998444 797.725037,167.382690 
	C790.974365,171.947250 783.729431,170.790756 778.741150,163.789307 
	C776.639648,160.839600 774.737305,160.202759 771.399109,161.884033 
	C767.279724,159.027863 763.386292,156.353668 759.863831,153.257477 
	C758.223633,151.815826 757.303101,149.555511 756.018127,147.309555 
z"/>
<path fill="#CFCFCF" opacity="1.000000" stroke="none" 
	d="
M1150.017822,55.977688 
	C1151.979736,57.096611 1154.600464,57.748695 1155.784180,59.419086 
	C1159.873291,65.189240 1163.655762,71.205650 1167.106812,77.378853 
	C1167.995361,78.968430 1167.240356,81.476830 1166.479492,83.726357 
	C1159.929321,75.175125 1153.381836,66.934303 1150.017944,56.377266 
	C1150.001099,55.998535 1150.017822,55.977703 1150.017822,55.977688 
z"/>
<path fill="#BDBEC0" opacity="1.000000" stroke="none" 
	d="
M1083.802002,168.859741 
	C1077.927734,166.011337 1072.015625,162.812347 1065.915527,159.303192 
	C1071.739746,162.165054 1077.751953,165.337112 1083.802002,168.859741 
z"/>
<path fill="#CACBCC" opacity="1.000000" stroke="none" 
	d="
M963.804016,46.712776 
	C962.797791,46.893127 961.580811,46.763252 960.118713,46.360073 
	C961.113464,46.192032 962.353394,46.297295 963.804016,46.712776 
z"/>
<path fill="#B8B8B8" opacity="1.000000" stroke="none" 
	d="
M1174.145264,175.869110 
	C1174.843994,176.614716 1175.439575,177.454620 1176.008301,178.656464 
	C1175.981445,179.018402 1175.877319,179.109924 1175.877319,179.109924 
	C1175.237671,178.327164 1174.598145,177.544403 1173.897705,176.457031 
	C1173.836792,176.152420 1174.042358,175.963425 1174.145264,175.869110 
z"/>
<path fill="#D1D2D4" opacity="1.000000" stroke="none" 
	d="
M127.996445,148.002548 
	C127.741875,147.650009 127.487976,147.296616 127.257271,146.928680 
	C127.250793,146.918365 127.492302,146.752548 127.618179,146.659241 
	C127.748878,146.939056 127.879585,147.218872 128.009491,147.745056 
	C128.008698,147.991440 128.000351,147.999664 127.996445,148.002548 
z"/>
<path fill="#E2E2E3" opacity="1.000000" stroke="none" 
	d="
M433.033356,149.212402 
	C433.321747,149.423706 433.582245,149.927063 433.793915,150.723785 
	C433.498535,150.512909 433.251984,150.008682 433.033356,149.212402 
z"/>
<path fill="#E3E4E6" opacity="1.000000" stroke="none" 
	d="
M139.999084,38.000610 
	C139.748840,37.649956 139.497253,37.300137 139.266373,36.937141 
	C139.261719,36.929825 139.498672,36.768833 139.622925,36.679543 
	C139.742386,36.957523 139.861862,37.235500 139.991577,37.755821 
	C140.001831,37.998169 140.000000,38.000000 139.999084,38.000610 
z"/>
<path fill="#C0C1C3" opacity="1.000000" stroke="none" 
	d="
M1064.768066,96.881592 
	C1064.322266,97.021935 1063.729980,96.866730 1062.948120,96.462517 
	C1063.379517,96.337685 1064.000732,96.461861 1064.768066,96.881592 
z"/>
<path fill="#BDBEC0" opacity="1.000000" stroke="none" 
	d="
M995.023987,175.249649 
	C995.411987,175.361633 995.815796,175.794495 996.223267,176.533447 
	C995.831177,176.416534 995.435547,175.993530 995.023987,175.249649 
z"/>
<path fill="#B8B8B8" opacity="1.000000" stroke="none" 
	d="
M1176.034424,178.973633 
	C1176.422852,179.388382 1176.758545,179.847916 1177.050171,180.652420 
	C1177.006226,180.997406 1176.901978,181.091110 1176.901978,181.091095 
	C1176.573242,180.627167 1176.244385,180.163239 1175.896484,179.404617 
	C1175.877319,179.109924 1175.981445,179.018402 1176.034424,178.973633 
z"/>
<path fill="#B8B8B8" opacity="1.000000" stroke="none" 
	d="
M1177.059814,180.952240 
	C1177.447510,181.382492 1177.781494,181.857925 1178.065430,182.659927 
	C1178.015137,182.986496 1177.973999,183.030960 1177.973999,183.030945 
	C1177.633789,182.581421 1177.293579,182.131912 1176.927612,181.386749 
	C1176.901978,181.091110 1177.006226,180.997406 1177.059814,180.952240 
z"/>
<path fill="#B8B8B8" opacity="1.000000" stroke="none" 
	d="
M1179.089111,183.900604 
	C1179.405273,184.381714 1179.721313,184.862823 1180.014526,185.677979 
	C1179.991577,186.011993 1179.929810,186.077713 1179.929810,186.077728 
	C1179.568970,185.645355 1179.208008,185.212997 1178.896729,184.414093 
	C1178.946411,184.047546 1179.089111,183.900589 1179.089111,183.900604 
z"/>
<path fill="#CFCFCF" opacity="1.000000" stroke="none" 
	d="
M1149.990723,56.006462 
	C1149.863647,55.850132 1149.746948,55.685871 1149.630127,55.521591 
	C1149.729004,55.571541 1149.828003,55.621506 1149.972412,55.824585 
	C1150.017822,55.977703 1150.001099,55.998535 1149.990723,56.006462 
z"/>
<path fill="#B8B8B8" opacity="1.000000" stroke="none" 
	d="
M1178.872559,184.118561 
	C1178.465332,184.067719 1178.237915,183.839905 1178.045410,183.268555 
	C1177.973999,183.030960 1178.015137,182.986496 1178.038696,182.964783 
	C1178.337036,183.108139 1178.611938,183.273178 1178.987915,183.669403 
	C1179.089111,183.900589 1178.946411,184.047546 1178.872559,184.118561 
z"/>
<path fill="#B5B7BE" opacity="1.000000" stroke="none" 
	d="
M943.928467,83.361404 
	C944.149475,83.231094 944.510193,83.334435 944.948120,83.717880 
	C944.706299,83.863686 944.387207,83.729378 943.928467,83.361404 
z"/>
<path fill="#B8B8B8" opacity="1.000000" stroke="none" 
	d="
M1180.024658,185.981201 
	C1180.257324,186.121735 1180.457031,186.293060 1180.656860,186.464371 
	C1180.450317,186.470367 1180.243896,186.476395 1179.983643,186.280060 
	C1179.929810,186.077713 1179.991577,186.011993 1180.024658,185.981201 
z"/>
<path fill="#C0C1C3" opacity="1.000000" stroke="none" 
	d="
M1065.950439,97.707962 
	C1065.716797,97.851501 1065.384644,97.742996 1064.950684,97.381927 
	C1065.183228,97.238213 1065.517578,97.347069 1065.950439,97.707962 
z"/>
<path fill="#B8B8B8" opacity="1.000000" stroke="none" 
	d="
M1181.884888,189.125687 
	C1181.690552,188.936752 1181.496216,188.747818 1181.301880,188.558884 
	C1181.516602,188.539932 1181.731201,188.520996 1181.967651,188.759247 
	C1181.989380,189.016464 1181.884888,189.125687 1181.884888,189.125687 
z"/>
<path fill="#B8B8B8" opacity="1.000000" stroke="none" 
	d="
M1182.044189,188.964447 
	C1182.287109,189.093719 1182.475098,189.274994 1182.663208,189.456299 
	C1182.454834,189.474045 1182.246338,189.491791 1181.961426,189.317627 
	C1181.884888,189.125687 1181.989380,189.016464 1182.044189,188.964447 
z"/>
<path fill="#B8B8B8" opacity="1.000000" stroke="none" 
	d="
M1183.958008,192.048035 
	C1183.748657,191.881119 1183.539429,191.714172 1183.330078,191.547211 
	C1183.541992,191.539948 1183.753906,191.532684 1183.984863,191.761627 
	C1184.003906,191.997833 1183.958008,192.048035 1183.958008,192.048035 
z"/>
<path fill="#B8B8B8" opacity="1.000000" stroke="none" 
	d="
M1185.010742,192.986954 
	C1184.711548,192.840439 1184.412231,192.693924 1184.035522,192.297729 
	C1183.958008,192.048035 1184.003906,191.997833 1184.030029,191.973572 
	C1184.332275,192.132523 1184.608154,192.315735 1184.942139,192.749176 
	C1185.000000,192.999405 1185.010742,192.986954 1185.010742,192.986954 
z"/>
<path fill="#ACADB1" opacity="1.000000" stroke="none" 
	d="
M923.855713,145.890533 
	C923.645935,145.950851 923.382446,145.774567 923.082520,145.348694 
	C923.389160,145.159912 923.641113,145.344849 923.855713,145.890533 
z"/>
<path fill="#B8B8B8" opacity="1.000000" stroke="none" 
	d="
M1184.994385,193.004303 
	C1185.277222,193.173965 1185.565674,193.338730 1185.931396,193.747345 
	C1186.008789,193.991211 1186.000000,193.999878 1185.995605,194.004166 
	C1185.700562,193.839005 1185.410034,193.669571 1185.065063,193.243546 
	C1185.010742,192.986954 1185.000000,192.999405 1184.994385,193.004303 
z"/>
<path fill="#ABACAF" opacity="1.000000" stroke="none" 
	d="
M921.887939,108.808014 
	C921.646606,108.896080 921.345215,108.717598 920.980591,108.259850 
	C921.220886,108.167542 921.524414,108.354507 921.887939,108.808014 
z"/>
<path fill="#FFFFFF" opacity="1.000000" stroke="none" 
	d="
M497.382385,158.105469 
	C492.660858,153.415573 487.315613,149.524643 484.128448,144.313782 
	C475.721710,130.569183 479.225098,106.966988 499.860901,101.710304 
	C507.506866,99.762604 515.386292,100.025658 522.340881,104.877800 
	C522.477173,104.972855 522.596985,105.091904 522.735535,105.183006 
	C537.102051,114.629463 538.211060,114.597038 553.161621,105.284248 
	C559.325134,101.444939 565.606262,97.794281 572.619446,93.586456 
	C573.174805,96.015617 573.940491,97.823288 573.948059,99.634132 
	C574.032959,119.931007 574.011169,140.228394 573.975769,160.525574 
	C573.973572,161.775406 573.616333,163.024612 573.304382,165.054489 
	C565.905457,160.404327 559.300537,155.755585 552.229370,151.980362 
	C547.345215,149.372787 541.816467,147.972458 536.156250,146.083344 
	C535.736694,146.134048 535.338928,146.068283 535.028503,145.751221 
	C534.455811,145.190750 534.147217,145.091522 533.792236,145.136505 
	C531.561096,144.014526 530.238831,144.646637 528.664429,146.731873 
	C520.863159,157.064377 510.144897,160.037750 497.382385,158.105469 
z"/>
<path fill="#ADADB1" opacity="1.000000" stroke="none" 
	d="
M565.243042,164.385712 
	C568.619080,170.226776 566.165710,175.025421 561.907043,179.635651 
	C551.697388,190.688202 539.325256,198.644302 524.706238,201.352463 
	C504.050568,205.178925 483.751282,203.774307 465.807922,190.865189 
	C464.880615,190.198029 464.118439,189.301346 463.182983,188.178009 
	C465.222504,188.689957 467.442352,189.370102 469.481812,190.405533 
	C500.716736,206.263718 544.679749,198.600403 565.243042,164.385712 
z"/>
<path fill="#C1C2C6" opacity="1.000000" stroke="none" 
	d="
M525.117737,99.470947 
	C520.982178,99.096672 516.722839,98.568260 512.541504,97.674461 
	C495.303345,93.989586 477.018341,107.864807 477.257721,125.631714 
	C477.368744,133.872726 480.315094,142.075546 481.970154,150.687378 
	C479.332428,147.642075 476.700592,144.205093 474.041809,139.946365 
	C474.009766,134.473129 473.978882,129.821503 474.004608,125.170181 
	C474.068298,113.656616 482.925171,101.408463 493.600983,96.861008 
	C501.256683,93.599991 509.150848,94.172272 517.051392,93.897324 
	C519.710876,95.647812 522.370300,97.398300 525.117737,99.470947 
z"/>
<path fill="#979CAC" opacity="1.000000" stroke="none" 
	d="
M516.802124,93.623474 
	C509.150848,94.172272 501.256683,93.599991 493.600983,96.861008 
	C482.925171,101.408463 474.068298,113.656616 474.004608,125.170181 
	C473.978882,129.821503 474.009766,134.473129 473.988953,139.599289 
	C463.921600,121.073639 474.566620,92.831253 500.482483,91.124382 
	C505.767456,90.776291 511.192383,92.552605 516.802124,93.623474 
z"/>
<path fill="#AAABAD" opacity="1.000000" stroke="none" 
	d="
M564.853394,83.425743 
	C568.172546,89.869156 567.943604,91.323944 561.999329,94.942154 
	C555.497681,98.899696 548.777161,102.495773 542.225708,106.373917 
	C538.549927,108.549820 535.052368,108.615585 531.180176,106.014740 
	C541.202759,99.771095 551.595886,93.786507 561.877869,87.616661 
	C563.159546,86.847565 563.852478,85.097160 564.853394,83.425743 
z"/>
<path fill="#C1C2C6" opacity="1.000000" stroke="none" 
	d="
M526.651978,100.775139 
	C526.247498,100.805008 525.757263,100.572517 525.203430,100.061661 
	C525.615356,100.026459 526.090759,100.269623 526.651978,100.775139 
z"/>
<path fill="#ADADB1" opacity="1.000000" stroke="none" 
	d="
M463.029236,187.647614 
	C462.812927,187.762604 462.503357,187.624344 462.065857,187.256714 
	C462.270630,187.149673 462.603302,187.272018 463.029236,187.647614 
z"/>
<path fill="#AAABAD" opacity="1.000000" stroke="none" 
	d="
M563.973511,82.220131 
	C564.187927,82.149857 564.490051,82.350914 564.858826,82.822098 
	C564.637390,82.891975 564.349243,82.691719 563.973511,82.220131 
z"/>
<path fill="#E2E2E3" opacity="1.000000" stroke="none" 
	d="
M533.926392,145.352814 
	C534.147217,145.091522 534.455811,145.190750 534.861206,145.638824 
	C534.689758,145.752014 534.375183,145.660568 533.926392,145.352814 
z"/>
<path fill="#AFB0B6" opacity="1.000000" stroke="none" 
	d="
M734.323730,99.394424 
	C738.856750,102.265282 740.003601,106.883530 739.992310,112.120110 
	C739.939636,136.596741 740.016907,161.073715 739.928528,185.550125 
	C739.917236,188.671249 739.615601,191.923096 738.660400,194.857895 
	C738.117249,196.526855 736.204041,198.418335 734.516357,198.937744 
	C723.583862,202.302338 712.591675,200.661865 701.558044,199.051941 
	C697.978027,198.529556 693.910278,198.635712 690.550476,199.824524 
	C680.318909,203.444778 670.085693,204.412796 659.827209,200.841797 
	C656.267334,199.602631 653.255188,196.789780 649.995483,194.338501 
	C651.436584,194.310349 652.933228,194.483215 654.304871,194.992493 
	C668.638611,200.314346 681.898071,198.594940 694.020081,189.089539 
	C694.662476,188.585800 695.404907,188.209610 696.578125,187.475266 
	C696.795532,189.938950 696.987427,192.113678 697.214600,194.687714 
	C709.347656,194.687714 721.388306,194.687714 734.181885,194.687714 
	C734.181885,162.937973 734.181885,131.393921 734.323730,99.394424 
z"/>
<path fill="#FEFEFE" opacity="1.000000" stroke="none" 
	d="
M696.097656,149.845322 
	C694.079346,158.839691 687.269897,163.827881 676.249084,163.719666 
	C675.442993,163.213898 675.147400,163.128738 674.804565,163.207199 
	C674.804565,163.207199 674.995605,163.188629 674.868896,162.863907 
	C666.946350,151.366165 666.754883,145.073944 674.057190,136.942078 
	C674.773621,136.144272 675.868225,135.147461 676.782959,135.151810 
	C683.978638,135.185806 692.226746,132.483582 696.115845,141.952423 
	C696.115845,141.952423 696.079346,142.013748 696.018799,142.420135 
	C696.004700,145.166107 696.051208,147.505722 696.097656,149.845322 
z"/>
<path fill="#BDBEC0" opacity="1.000000" stroke="none" 
	d="
M696.191528,141.554047 
	C692.226746,132.483582 683.978638,135.185806 676.782959,135.151810 
	C675.868225,135.147461 674.773621,136.144272 674.057190,136.942078 
	C666.754883,145.073944 666.946350,151.366165 674.777222,162.892380 
	C668.368347,162.459869 664.731506,158.248184 662.932251,152.577972 
	C660.615112,145.276001 661.099243,138.059601 666.169006,131.855377 
	C671.072937,125.854156 677.965393,126.256248 684.575867,127.204430 
	C690.631409,128.073013 695.110168,133.931549 696.191528,141.554047 
z"/>
<path fill="#BDBEC0" opacity="1.000000" stroke="none" 
	d="
M696.333191,149.562698 
	C696.051208,147.505722 696.004700,145.166107 696.017151,142.384506 
	C696.240295,144.388367 696.404480,146.834213 696.333191,149.562698 
z"/>
<path fill="#AFB0B6" opacity="1.000000" stroke="none" 
	d="
M649.880127,193.708282 
	C649.429993,193.845749 648.839417,193.691879 648.066895,193.274353 
	C648.503235,193.146088 649.121460,193.281509 649.880127,193.708282 
z"/>
<path fill="#BDBEC0" opacity="1.000000" stroke="none" 
	d="
M674.902344,163.440247 
	C675.147400,163.128738 675.442993,163.213898 675.823608,163.660187 
	C675.637207,163.796234 675.318665,163.734772 674.902344,163.440247 
z"/>
<path fill="#9699A2" opacity="1.000000" stroke="none" 
	d="
M135.888580,103.658188 
	C124.514839,110.181602 119.431450,121.497200 115.035088,132.602875 
	C109.341469,146.985535 105.106842,161.965240 100.708694,176.825394 
	C99.791573,179.924118 100.902107,183.622955 101.134628,187.460129 
	C99.988945,188.237091 98.786842,188.599167 96.538536,189.276352 
	C97.036499,154.424210 109.775131,125.271385 129.893219,98.891983 
	C130.636368,98.643677 131.379532,98.395363 132.122696,98.147049 
	C133.332474,99.882355 134.542252,101.617661 135.888580,103.658188 
z"/>
<path fill="#838CAA" opacity="1.000000" stroke="none" 
	d="
M796.717285,120.751892 
	C794.741455,123.173454 792.485962,125.317024 790.082642,127.769012 
	C788.674133,126.609314 787.413452,125.141197 786.152832,123.673080 
	C787.943542,122.459183 789.598938,120.870743 791.570801,120.158180 
	C792.971985,119.651825 794.800049,120.326393 796.717285,120.751892 
z"/>
<path fill="#C1C2C6" opacity="1.000000" stroke="none" 
	d="
M867.048767,159.394272 
	C867.224670,158.810593 867.563232,158.527145 868.097656,157.972244 
	C875.685913,159.155869 883.279541,160.104935 889.208679,165.573196 
	C884.404724,171.662750 875.909180,171.314667 870.764160,165.069336 
	C869.406128,163.420898 868.386414,161.493713 867.048767,159.394272 
z"/>
<path fill="#A8A9AC" opacity="1.000000" stroke="none" 
	d="
M1052.968506,133.591522 
	C1049.098267,133.431961 1044.891846,131.931641 1041.135742,132.683014 
	C1032.008179,134.508926 1026.576782,144.807220 1029.294800,153.566406 
	C1029.582031,154.492096 1029.703125,155.469376 1029.794434,156.830414 
	C1024.778564,153.770462 1022.780579,147.080185 1024.674072,140.450302 
	C1026.691162,133.387634 1031.981079,128.504272 1037.993530,127.969276 
	C1043.788696,127.453629 1048.888672,128.709076 1052.968506,133.591522 
z"/>
<path fill="#A8A9AC" opacity="1.000000" stroke="none" 
	d="
M1029.758545,157.488617 
	C1030.165527,157.603134 1030.561523,158.024994 1030.973511,158.766998 
	C1030.575439,158.656754 1030.161621,158.226364 1029.758545,157.488617 
z"/>
<path fill="#A8A9AC" opacity="1.000000" stroke="none" 
	d="
M1054.185547,134.648361 
	C1053.988647,134.737717 1053.639038,134.586746 1053.168579,134.169556 
	C1053.376099,134.071579 1053.704590,134.239807 1054.185547,134.648361 
z"/>
<path fill="#C4C4C5" opacity="1.000000" stroke="none" 
	d="
M613.196533,52.376968 
	C617.348389,55.185890 619.073975,59.267105 619.059204,64.536606 
	C618.943542,105.792213 618.997986,147.048294 618.993042,188.304230 
	C618.991882,198.080139 616.080139,200.958344 606.163330,200.997253 
	C601.006409,201.017487 595.838806,200.794144 590.695374,201.057556 
	C585.621033,201.317413 581.637024,199.527374 578.200806,195.523895 
	C580.046448,195.445129 582.063965,195.641022 584.717651,196.166931 
	C594.385254,199.319992 603.356140,200.717438 612.040161,195.362946 
	C612.198669,195.307785 612.357239,195.252609 613.089783,194.936066 
	C614.441406,193.131058 615.821411,191.617050 615.898987,190.038971 
	C616.411743,179.615692 616.855652,169.179520 616.899841,158.745758 
	C616.933533,150.807281 616.153809,142.868103 616.072571,134.925797 
	C615.924683,120.468483 615.991821,106.008453 616.058044,91.549957 
	C616.069275,89.089127 616.663940,86.635117 616.747864,84.169731 
	C617.073059,74.612457 617.647339,65.007553 613.177368,56.053535 
	C613.151245,54.961254 613.125183,53.868969 613.196533,52.376968 
z"/>
<path fill="#A6A6A6" opacity="1.000000" stroke="none" 
	d="
M613.113342,56.513004 
	C617.647339,65.007553 617.073059,74.612457 616.747864,84.169731 
	C616.663940,86.635117 616.069275,89.089127 616.058044,91.549957 
	C615.991821,106.008453 615.924683,120.468483 616.072571,134.925797 
	C616.153809,142.868103 616.933533,150.807281 616.899841,158.745758 
	C616.855652,169.179520 616.411743,179.615692 615.898987,190.038971 
	C615.821411,191.617050 614.441406,193.131058 613.321655,194.837799 
	C613.002686,148.991425 613.026001,102.981949 613.113342,56.513004 
z"/>
<path fill="#9FA1A6" opacity="1.000000" stroke="none" 
	d="
M611.577576,195.256226 
	C603.356140,200.717438 594.385254,199.319992 585.102844,196.192230 
	C593.606262,195.641495 602.360657,195.395493 611.577576,195.256226 
z"/>
<path fill="#FBFBFC" opacity="1.000000" stroke="none" 
	d="
M753.104187,216.101074 
	C752.575562,215.784775 752.046875,215.468491 751.062378,214.738098 
	C748.011597,213.218552 745.468689,211.335068 742.811646,211.157196 
	C735.564392,210.672058 728.268921,210.906967 720.992554,210.856628 
	C720.710815,206.810104 722.164612,205.139420 726.641296,204.822525 
	C738.734802,203.966385 740.911011,201.909210 743.248169,191.740723 
	C743.722107,189.678436 744.436462,187.671387 745.559937,183.887802 
	C748.547119,187.342606 750.714172,190.014755 753.055786,192.523972 
	C758.649658,198.518234 765.685059,201.899445 773.497131,204.158005 
	C777.711670,205.376511 781.634766,207.602982 785.523804,209.863358 
	C782.231079,211.940582 779.103882,213.529175 775.976685,215.117752 
	C775.484070,215.109985 774.991516,215.102234 773.841980,214.941345 
	C762.822876,208.981674 761.225159,209.086136 753.104187,216.101074 
z"/>
<path fill="#3B68FE" opacity="1.000000" stroke="none" 
	d="
M720.762329,210.937729 
	C728.268921,210.906967 735.564392,210.672058 742.811646,211.157196 
	C745.468689,211.335068 748.011597,213.218552 750.773315,214.630508 
	C750.940125,220.056992 750.940125,225.176971 750.940125,230.982605 
	C748.777832,230.982605 746.858337,230.982605 744.453735,230.495682 
	C743.968750,225.808319 743.968750,221.607864 743.968750,217.407425 
	C743.265930,217.233475 742.563049,217.059540 741.860229,216.885590 
	C740.914795,219.062012 739.606384,221.161392 739.123596,223.436005 
	C738.615906,225.828339 738.898193,228.388321 738.835266,230.875061 
	C736.872192,230.906967 734.909119,230.938873 732.489990,230.485916 
	C731.069885,225.864014 734.238159,220.594086 727.788208,216.473328 
	C727.788208,222.083206 727.788208,226.471527 727.788208,230.859848 
	C725.514221,230.899948 723.240295,230.940033 720.498535,230.486832 
	C720.040100,223.708527 720.049500,217.423508 720.058960,211.138504 
	C720.058899,211.138504 720.532166,211.018829 720.762329,210.937729 
z"/>
<path fill="#3B68FE" opacity="1.000000" stroke="none" 
	d="
M775.929443,215.512131 
	C779.103882,213.529175 782.231079,211.940582 785.681885,210.173462 
	C786.720825,210.305771 787.436096,210.616608 788.984802,211.289688 
	C788.984802,208.530380 788.984802,206.238632 788.990234,203.526062 
	C791.294006,203.116776 793.592407,203.128311 796.311523,203.139038 
	C796.732300,212.200882 796.732300,221.263504 796.732300,230.302551 
	C780.232788,232.883575 772.335266,230.074463 775.929443,215.512131 
M784.207458,217.546875 
	C781.945129,218.974365 781.389038,220.865952 783.313110,222.814789 
	C784.190491,223.703476 786.601746,224.630524 786.809998,224.363663 
	C787.818542,223.071655 789.061218,221.213181 788.763306,219.881561 
	C788.513367,218.764160 786.255310,218.095947 784.207458,217.546875 
z"/>
<path fill="#A1A8BD" opacity="1.000000" stroke="none" 
	d="
M719.786438,210.965790 
	C720.049500,217.423508 720.040100,223.708527 720.072449,230.453140 
	C713.969971,232.763458 707.864197,235.540634 701.240601,231.426514 
	C702.990601,231.069778 705.025940,231.201111 706.968018,230.836304 
	C714.624573,229.398117 718.338379,223.780701 717.611084,214.484283 
	C713.297729,214.484283 708.933411,214.484283 704.228210,214.484283 
	C704.135437,216.304611 704.044739,218.084320 703.939514,220.148865 
	C705.400635,220.836838 706.834473,221.511932 708.268250,222.187012 
	C708.231445,222.634827 708.194641,223.082642 708.157837,223.530457 
	C705.550415,223.318924 702.169617,224.020035 700.547546,222.645584 
	C698.839722,221.198441 698.067566,217.716980 698.236877,215.215790 
	C698.457275,211.960754 700.748779,210.336472 704.543823,210.528030 
	C708.224792,210.713776 711.959229,209.838547 715.966064,209.154480 
	C717.345886,209.517487 718.429871,210.155289 719.786438,210.965790 
z"/>
<path fill="#FBFBFB" opacity="1.000000" stroke="none" 
	d="
M863.870117,215.124451 
	C863.176147,214.218536 862.482178,213.312622 861.280151,211.856415 
	C852.972595,211.170486 844.512268,208.553421 839.024658,217.098099 
	C839.037048,216.773438 838.935791,216.489273 838.366943,215.779022 
	C836.282349,212.017227 833.628235,210.826736 829.870483,210.957718 
	C822.589844,211.211502 815.294983,211.056198 808.005981,211.070404 
	C806.768372,210.890915 805.530701,210.711411 804.293091,210.531906 
	C804.033081,210.077377 803.773071,209.622833 803.513123,209.168304 
	C805.175598,207.779892 806.661194,206.052216 808.537354,205.073502 
	C812.466370,203.023865 816.601257,201.368759 820.827820,199.250519 
	C824.895691,196.229385 828.897095,193.651749 832.652466,190.755066 
	C837.913574,186.696762 839.924377,186.711517 845.243164,190.360458 
	C851.228943,194.466995 857.472107,198.198456 863.923401,202.581360 
	C864.243347,204.715530 864.243164,206.361420 864.242981,208.007309 
	C864.202881,208.768417 864.162842,209.529541 864.092041,211.072617 
	C863.997620,212.944534 863.933899,214.034485 863.870117,215.124451 
z"/>
<path fill="#3B68FE" opacity="1.000000" stroke="none" 
	d="
M807.935120,211.528717 
	C815.294983,211.056198 822.589844,211.211502 829.870483,210.957718 
	C833.628235,210.826736 836.282349,212.017227 838.180542,215.642929 
	C838.348145,220.767685 838.348145,225.561951 838.348145,230.204666 
	C830.680603,231.795593 830.485046,231.600388 830.139282,224.486801 
	C830.040100,222.445404 829.556519,220.422699 829.249146,218.391434 
	C828.846008,218.410660 828.442871,218.429901 828.039734,218.449127 
	C827.624084,222.331482 827.208496,226.213821 826.744934,230.543808 
	C824.118164,230.543808 821.413147,230.543808 817.924072,230.543808 
	C817.924072,226.575195 817.924072,222.561752 817.924072,218.548325 
	C817.313660,218.509979 816.703186,218.471634 816.092773,218.433289 
	C815.607666,222.328873 815.122620,226.224457 814.582581,230.561310 
	C812.780823,230.561310 810.719849,230.561310 807.864258,230.561310 
	C807.864258,224.478546 807.864258,218.232788 807.935120,211.528717 
z"/>
<path fill="#3B68FE" opacity="1.000000" stroke="none" 
	d="
M839.073730,217.495667 
	C844.512268,208.553421 852.972595,211.170486 861.066711,211.657471 
	C861.361389,218.112152 861.361389,224.215530 861.361389,231.068405 
	C856.395691,231.068405 852.135925,231.068405 847.413086,231.159454 
	C839.720215,229.505737 839.914673,223.410477 839.073730,217.495667 
M847.137329,222.070587 
	C848.651917,222.879807 850.141418,224.187790 851.692749,224.265564 
	C852.362122,224.299118 853.664307,221.803146 853.705750,220.427032 
	C853.729919,219.620941 851.487488,217.860123 850.875854,218.098267 
	C849.413086,218.667831 848.312134,220.166504 847.137329,222.070587 
z"/>
<path fill="#3C69FE" opacity="1.000000" stroke="none" 
	d="
M753.060303,216.541138 
	C761.225159,209.086136 762.822876,208.981674 773.473999,214.975876 
	C773.800110,216.822205 773.705872,218.496323 773.898865,220.136658 
	C774.513000,225.355591 772.163818,228.853455 767.504395,230.703949 
	C762.966553,232.506165 756.379944,230.752548 754.292603,226.545731 
	C752.939209,223.818024 753.379761,220.200211 753.060303,216.541138 
M760.259277,222.063400 
	C761.746155,222.680481 763.232971,223.297562 764.719849,223.914642 
	C765.254883,222.152390 765.789917,220.390137 766.504578,218.036255 
	C763.071533,218.388641 759.759888,216.480347 760.259277,222.063400 
z"/>
<path fill="#A1A8BD" opacity="1.000000" stroke="none" 
	d="
M882.392822,230.996704 
	C881.982544,227.706284 881.821655,224.400955 882.125671,221.138977 
	C882.222900,220.095886 883.551575,219.167572 884.316772,218.186707 
	C885.164795,219.170013 886.603455,220.074677 886.746887,221.151855 
	C887.135132,224.066788 886.973083,227.055023 887.074341,230.466064 
	C885.687012,230.944839 884.254700,230.971725 882.392822,230.996704 
z"/>
<path fill="#9FA1A6" opacity="1.000000" stroke="none" 
	d="
M739.269653,230.915009 
	C738.898193,228.388321 738.615906,225.828339 739.123596,223.436005 
	C739.606384,221.161392 740.914795,219.062012 741.860229,216.885590 
	C742.563049,217.059540 743.265930,217.233475 743.968750,217.407425 
	C743.968750,221.607864 743.968750,225.808319 744.007690,230.464081 
	C742.599121,230.931274 741.151611,230.943130 739.269653,230.915009 
z"/>
<path fill="#9FA1A6" opacity="1.000000" stroke="none" 
	d="
M728.219604,230.904297 
	C727.788208,226.471527 727.788208,222.083206 727.788208,216.473328 
	C734.238159,220.594086 731.069885,225.864014 732.070190,230.450211 
	C730.954590,230.915833 729.802795,230.932281 728.219604,230.904297 
z"/>
<path fill="#406BFA" opacity="1.000000" stroke="none" 
	d="
M863.929504,215.574173 
	C863.933899,214.034485 863.997620,212.944534 864.132507,211.452301 
	C871.736633,211.007233 871.749451,211.007111 871.820374,218.433762 
	C871.855042,222.060806 871.839050,225.688431 871.821228,229.315674 
	C871.819763,229.620728 871.630005,229.924850 871.398315,230.614838 
	C869.319397,230.614838 867.112244,230.614838 863.988831,230.614838 
	C863.988831,225.801300 863.988831,220.912598 863.929504,215.574173 
z"/>
<path fill="#4670FA" opacity="1.000000" stroke="none" 
	d="
M864.551208,208.140015 
	C864.243164,206.361420 864.243347,204.715530 864.290405,202.675049 
	C865.148376,202.203415 866.093872,201.821991 866.744324,202.109100 
	C868.379517,202.830933 870.873840,203.600159 871.187012,204.821396 
	C871.583740,206.368240 870.163757,208.381042 869.395325,210.568527 
	C867.399475,209.558350 866.129456,208.915543 864.551208,208.140015 
z"/>
<path fill="#B5B7BE" opacity="1.000000" stroke="none" 
	d="
M975.010376,56.657265 
	C974.694397,56.506264 974.355896,56.054268 973.968506,55.309429 
	C974.275818,55.463146 974.631897,55.909710 975.010376,56.657265 
z"/>
<path fill="#9FA1A6" opacity="1.000000" stroke="none" 
	d="
M967.275757,230.902634 
	C967.188477,226.574005 967.549561,222.290833 967.910706,218.007645 
	C974.151428,220.988892 971.011536,226.016022 972.164185,230.383041 
	C970.728577,230.865906 969.226379,230.906998 967.275757,230.902634 
z"/>
<path fill="#9FA1A6" opacity="1.000000" stroke="none" 
	d="
M924.069580,230.862427 
	C923.769470,227.480591 923.714783,224.149429 924.031616,220.854004 
	C924.127014,219.862244 925.256042,218.969894 925.911621,218.032028 
	C926.611328,218.934387 927.817993,219.785645 927.914978,220.748688 
	C928.196716,223.545044 928.033325,226.386261 928.045532,229.688583 
	C926.850098,230.420471 925.653748,230.673630 924.069580,230.862427 
z"/>
<path fill="#949DBD" opacity="1.000000" stroke="none" 
	d="
M784.546875,217.387863 
	C786.255310,218.095947 788.513367,218.764160 788.763306,219.881561 
	C789.061218,221.213181 787.818542,223.071655 786.809998,224.363663 
	C786.601746,224.630524 784.190491,223.703476 783.313110,222.814789 
	C781.389038,220.865952 781.945129,218.974365 784.546875,217.387863 
z"/>
<path fill="#949DBD" opacity="1.000000" stroke="none" 
	d="
M847.101196,221.680328 
	C848.312134,220.166504 849.413086,218.667831 850.875854,218.098267 
	C851.487488,217.860123 853.729919,219.620941 853.705750,220.427032 
	C853.664307,221.803146 852.362122,224.299118 851.692749,224.265564 
	C850.141418,224.187790 848.651917,222.879807 847.101196,221.680328 
z"/>
<path fill="#949DBD" opacity="1.000000" stroke="none" 
	d="
M760.169922,221.656693 
	C759.759888,216.480347 763.071533,218.388641 766.504578,218.036255 
	C765.789917,220.390137 765.254883,222.152390 764.719849,223.914642 
	C763.232971,223.297562 761.746155,222.680481 760.169922,221.656693 
z"/>
</svg>